G04 Layer_Physical_Order=3*
G04 Layer_Color=36540*
%FSLAX44Y44*%
%MOMM*%
G71*
G01*
G75*
%ADD41O,1.6000X2.0000*%
%ADD43R,2.0000X1.6000*%
%ADD44O,2.0000X1.6000*%
%ADD47C,1.7000*%
%ADD50C,4.0000*%
%ADD51C,0.6000*%
G36*
X142000Y151000D02*
X142000Y128000D01*
X105000Y128000D01*
X105000Y8000D01*
X26000Y8000D01*
X9000Y25000D01*
X9000Y125000D01*
X92000Y125000D01*
X92000Y151000D01*
X142000Y151000D01*
D02*
G37*
G36*
X477000Y56000D02*
X441000Y56000D01*
X441000Y75000D01*
X441000Y89000D01*
X409009D01*
X408605Y89605D01*
X406951Y90710D01*
X405000Y91098D01*
X403049Y90710D01*
X401395Y89605D01*
X400991Y89000D01*
X323000Y89000D01*
X323000Y58000D01*
Y20000D01*
X316544D01*
X316113Y21270D01*
X316575Y21625D01*
X318098Y23609D01*
X319055Y25920D01*
X319382Y28400D01*
Y28900D01*
X309800D01*
X300218D01*
Y28400D01*
X300544Y25920D01*
X301502Y23609D01*
X303025Y21625D01*
X303487Y21270D01*
X303055Y20000D01*
X297000D01*
Y60000D01*
X269000D01*
X269000Y75746D01*
X269099Y76500D01*
X269000Y77254D01*
X269000Y88197D01*
X270270Y88583D01*
X270395Y88395D01*
X272049Y87290D01*
X274000Y86902D01*
X275951Y87290D01*
X277605Y88395D01*
X278710Y90049D01*
X279098Y92000D01*
X278710Y93951D01*
X277605Y95605D01*
X275951Y96710D01*
X274000Y97098D01*
X272049Y96710D01*
X270395Y95605D01*
X270270Y95417D01*
X269000Y95803D01*
X269000Y113000D01*
X384025Y113000D01*
X384150Y111730D01*
X384049Y111710D01*
X382395Y110605D01*
X381290Y108951D01*
X380902Y107000D01*
X381290Y105049D01*
X382395Y103395D01*
X384049Y102290D01*
X386000Y101902D01*
X387951Y102290D01*
X389605Y103395D01*
X390710Y105049D01*
X391098Y107000D01*
X390710Y108951D01*
X389605Y110605D01*
X387951Y111710D01*
X387850Y111730D01*
X387975Y113000D01*
X421025D01*
X421150Y111730D01*
X421049Y111710D01*
X419395Y110605D01*
X418290Y108951D01*
X417902Y107000D01*
X418290Y105049D01*
X419395Y103395D01*
X421049Y102290D01*
X423000Y101902D01*
X424951Y102290D01*
X426605Y103395D01*
X427710Y105049D01*
X428098Y107000D01*
X427710Y108951D01*
X426605Y110605D01*
X424951Y111710D01*
X424850Y111730D01*
X424975Y113000D01*
X460025Y113000D01*
X460150Y111730D01*
X460049Y111710D01*
X458395Y110605D01*
X457290Y108951D01*
X456902Y107000D01*
X457290Y105049D01*
X458395Y103395D01*
X460049Y102290D01*
X462000Y101902D01*
X463951Y102290D01*
X465605Y103395D01*
X466710Y105049D01*
X467098Y107000D01*
X466710Y108951D01*
X465605Y110605D01*
X463951Y111710D01*
X463850Y111730D01*
X463975Y113000D01*
X477000D01*
X477000Y56000D01*
D02*
G37*
G36*
X71000Y174000D02*
X76100D01*
X76906Y173018D01*
X76902Y173000D01*
X77290Y171049D01*
X78395Y169395D01*
X80049Y168290D01*
X82000Y167902D01*
X83951Y168290D01*
X84729Y168810D01*
X85999Y168131D01*
Y130000D01*
X9000D01*
X9000Y174000D01*
X50100Y174000D01*
X50906Y173018D01*
X50902Y173000D01*
X51290Y171049D01*
X52395Y169395D01*
X54049Y168290D01*
X56000Y167902D01*
X57951Y168290D01*
X59605Y169395D01*
X60710Y171049D01*
X61098Y173000D01*
X60710Y174951D01*
X59605Y176605D01*
X58660Y177236D01*
Y178764D01*
X59605Y179395D01*
X60710Y181049D01*
X61098Y183000D01*
X60710Y184951D01*
X59605Y186605D01*
X57951Y187710D01*
X57000Y187899D01*
Y189101D01*
X57951Y189290D01*
X59605Y190395D01*
X60710Y192049D01*
X61098Y194000D01*
X60710Y195951D01*
X59605Y197605D01*
X57951Y198710D01*
X57000Y198899D01*
Y211919D01*
X57106Y213000D01*
X57000Y214081D01*
X57000Y258507D01*
X57098Y259000D01*
X57000Y259493D01*
X57000Y309000D01*
X71000Y309000D01*
X71000Y174000D01*
D02*
G37*
G36*
X255000Y113000D02*
X245000Y113000D01*
Y17000D01*
X347000Y17000D01*
X347000Y44000D01*
X375000Y44000D01*
X375000Y8000D01*
X212000Y8000D01*
X212000Y72000D01*
X204039Y72000D01*
Y86000D01*
X203884Y86780D01*
X203442Y87442D01*
X202780Y87884D01*
X202000Y88039D01*
X183000D01*
X182220Y87884D01*
X181558Y87442D01*
X181116Y86780D01*
X180961Y86000D01*
Y72000D01*
X109000Y72000D01*
X109000Y100000D01*
X179000Y100000D01*
X179000Y127000D01*
X239000Y127000D01*
Y138000D01*
X246507D01*
X247000Y137902D01*
X247493Y138000D01*
X255000D01*
Y113000D01*
D02*
G37*
G36*
X623000Y535000D02*
Y522455D01*
X621797Y522047D01*
X621732Y522132D01*
X619643Y523735D01*
X617211Y524743D01*
X614600Y525086D01*
X611990Y524743D01*
X609557Y523735D01*
X607468Y522132D01*
X605865Y520043D01*
X604857Y517611D01*
X604514Y515000D01*
Y511000D01*
X604857Y508390D01*
X605865Y505957D01*
X607468Y503868D01*
X609557Y502265D01*
X611990Y501257D01*
X614600Y500914D01*
X617211Y501257D01*
X619643Y502265D01*
X621732Y503868D01*
X621797Y503953D01*
X623000Y503545D01*
Y495431D01*
X622045Y494593D01*
X622000Y494599D01*
X618998Y494204D01*
X616200Y493045D01*
X613798Y491202D01*
X611955Y488800D01*
X610796Y486002D01*
X610401Y483000D01*
X610796Y479998D01*
X611955Y477200D01*
X613798Y474798D01*
X616200Y472955D01*
X618998Y471796D01*
X622000Y471401D01*
X622045Y471407D01*
X623000Y470569D01*
X623000Y429539D01*
X612500D01*
X611720Y429384D01*
X611058Y428942D01*
X610616Y428280D01*
X610461Y427500D01*
Y408500D01*
X610616Y407720D01*
X611058Y407058D01*
X611720Y406616D01*
X612500Y406461D01*
X623000D01*
Y316495D01*
X621797Y316086D01*
X621489Y316489D01*
X619295Y318172D01*
X616741Y319230D01*
X614000Y319591D01*
X611259Y319230D01*
X608705Y318172D01*
X606511Y316489D01*
X604828Y314295D01*
X603770Y311741D01*
X603409Y309000D01*
X603770Y306259D01*
X604828Y303705D01*
X606511Y301511D01*
X608705Y299828D01*
X611259Y298770D01*
X614000Y298409D01*
X616741Y298770D01*
X619295Y299828D01*
X621489Y301511D01*
X621797Y301914D01*
X623000Y301505D01*
Y291095D01*
X621797Y290686D01*
X621489Y291089D01*
X619295Y292772D01*
X616741Y293830D01*
X614000Y294191D01*
X611259Y293830D01*
X608705Y292772D01*
X606511Y291089D01*
X604828Y288895D01*
X603770Y286341D01*
X603409Y283600D01*
X603770Y280859D01*
X604828Y278305D01*
X606511Y276111D01*
X608705Y274428D01*
X611259Y273370D01*
X614000Y273009D01*
X616741Y273370D01*
X619295Y274428D01*
X621489Y276111D01*
X621797Y276514D01*
X623000Y276105D01*
Y269150D01*
X622500Y268739D01*
X605500D01*
X604720Y268584D01*
X604058Y268142D01*
X603616Y267480D01*
X603461Y266700D01*
Y249700D01*
X603616Y248920D01*
X604058Y248258D01*
X604720Y247816D01*
X605500Y247661D01*
X621730D01*
X623000Y246598D01*
Y225000D01*
X487000Y225000D01*
X487000Y289500D01*
X558500Y289500D01*
X558500Y390000D01*
X232000Y390000D01*
X232000Y327803D01*
X230730Y327417D01*
X230605Y327605D01*
X228951Y328710D01*
X227000Y329098D01*
X225049Y328710D01*
X223395Y327605D01*
X222290Y325951D01*
X221902Y324000D01*
X222290Y322049D01*
X223395Y320395D01*
X225049Y319290D01*
X227000Y318902D01*
X228951Y319290D01*
X230605Y320395D01*
X230730Y320583D01*
X232000Y320197D01*
X232000Y179974D01*
X230730Y179848D01*
X230710Y179951D01*
X229605Y181605D01*
X227951Y182710D01*
X226000Y183098D01*
X224049Y182710D01*
X222395Y181605D01*
X221290Y179951D01*
X221200Y179500D01*
X175000Y179500D01*
X175000Y103000D01*
X109898Y103000D01*
X109000Y103898D01*
X109000Y125000D01*
X146000Y125000D01*
X146000Y155000D01*
X102000Y155000D01*
X102000Y285250D01*
X122000Y309417D01*
X122000Y414000D01*
X44039Y414000D01*
Y427000D01*
X44000Y427197D01*
X44000Y535000D01*
X623000Y535000D01*
D02*
G37*
%LPC*%
G36*
X120500Y149024D02*
X112000D01*
X110852Y148548D01*
X110376Y147400D01*
Y140900D01*
X120500D01*
Y149024D01*
D02*
G37*
G36*
X132000D02*
X123500D01*
Y140900D01*
X133624D01*
Y147400D01*
X133148Y148548D01*
X132000Y149024D01*
D02*
G37*
G36*
X33500Y31500D02*
X13544D01*
X13811Y28785D01*
X15041Y24732D01*
X17037Y20997D01*
X19724Y17724D01*
X22997Y15037D01*
X26732Y13040D01*
X30785Y11811D01*
X33500Y11544D01*
Y31500D01*
D02*
G37*
G36*
X56456D02*
X36500D01*
Y11544D01*
X39215Y11811D01*
X43267Y13040D01*
X47003Y15037D01*
X50276Y17724D01*
X52963Y20997D01*
X54960Y24732D01*
X56189Y28785D01*
X56456Y31500D01*
D02*
G37*
G36*
X133624Y137900D02*
X123500D01*
Y129776D01*
X132000D01*
X133148Y130252D01*
X133624Y131400D01*
Y137900D01*
D02*
G37*
G36*
X120500D02*
X110376D01*
Y131400D01*
X110852Y130252D01*
X112000Y129776D01*
X120500D01*
Y137900D01*
D02*
G37*
G36*
X36500Y54456D02*
Y34500D01*
X56456D01*
X56189Y37215D01*
X54960Y41267D01*
X52963Y45002D01*
X50276Y48276D01*
X47003Y50963D01*
X43267Y52959D01*
X39215Y54189D01*
X36500Y54456D01*
D02*
G37*
G36*
X33500D02*
X30785Y54189D01*
X26732Y52959D01*
X22997Y50963D01*
X19724Y48276D01*
X17037Y45002D01*
X15041Y41267D01*
X13811Y37215D01*
X13544Y34500D01*
X33500D01*
Y54456D01*
D02*
G37*
G36*
X56000Y83098D02*
X54049Y82710D01*
X52395Y81605D01*
X51290Y79951D01*
X50902Y78000D01*
X51290Y76049D01*
X52395Y74395D01*
X54049Y73290D01*
X54766Y73147D01*
Y71853D01*
X54049Y71710D01*
X52395Y70605D01*
X51290Y68951D01*
X50902Y67000D01*
X51290Y65049D01*
X52395Y63395D01*
X53340Y62764D01*
Y61236D01*
X52395Y60605D01*
X51290Y58951D01*
X50902Y57000D01*
X51290Y55049D01*
X52395Y53395D01*
X54049Y52290D01*
X56000Y51902D01*
X57951Y52290D01*
X59605Y53395D01*
X60710Y55049D01*
X61098Y57000D01*
X60710Y58951D01*
X59605Y60605D01*
X58660Y61236D01*
Y62764D01*
X59605Y63395D01*
X60710Y65049D01*
X61098Y67000D01*
X60710Y68951D01*
X59605Y70605D01*
X57951Y71710D01*
X57234Y71853D01*
Y73147D01*
X57951Y73290D01*
X59605Y74395D01*
X60710Y76049D01*
X61098Y78000D01*
X60710Y79951D01*
X59605Y81605D01*
X57951Y82710D01*
X56000Y83098D01*
D02*
G37*
G36*
X82000D02*
X80049Y82710D01*
X78395Y81605D01*
X77290Y79951D01*
X76902Y78000D01*
X77290Y76049D01*
X78395Y74395D01*
X80049Y73290D01*
X80766Y73147D01*
Y71853D01*
X80049Y71710D01*
X78395Y70605D01*
X77290Y68951D01*
X76902Y67000D01*
X77290Y65049D01*
X78395Y63395D01*
X79340Y62764D01*
Y61236D01*
X78395Y60605D01*
X77290Y58951D01*
X76902Y57000D01*
X77290Y55049D01*
X78395Y53395D01*
X80049Y52290D01*
X82000Y51902D01*
X83951Y52290D01*
X85605Y53395D01*
X86710Y55049D01*
X87098Y57000D01*
X86710Y58951D01*
X85605Y60605D01*
X84660Y61236D01*
Y62764D01*
X85605Y63395D01*
X86710Y65049D01*
X87098Y67000D01*
X86710Y68951D01*
X85605Y70605D01*
X83951Y71710D01*
X83234Y71853D01*
Y73147D01*
X83951Y73290D01*
X85605Y74395D01*
X86710Y76049D01*
X87098Y78000D01*
X86710Y79951D01*
X85605Y81605D01*
X83951Y82710D01*
X82000Y83098D01*
D02*
G37*
G36*
X462000Y70098D02*
X460049Y69710D01*
X458395Y68605D01*
X457290Y66951D01*
X456902Y65000D01*
X457290Y63049D01*
X458395Y61395D01*
X460049Y60290D01*
X462000Y59902D01*
X463951Y60290D01*
X465605Y61395D01*
X466710Y63049D01*
X467098Y65000D01*
X466710Y66951D01*
X465605Y68605D01*
X463951Y69710D01*
X462000Y70098D01*
D02*
G37*
G36*
X308300Y41785D02*
X307320Y41656D01*
X305009Y40698D01*
X303025Y39176D01*
X301502Y37191D01*
X300544Y34880D01*
X300218Y32400D01*
Y31900D01*
X308300D01*
Y41785D01*
D02*
G37*
G36*
X311300D02*
Y31900D01*
X319382D01*
Y32400D01*
X319055Y34880D01*
X318098Y37191D01*
X316575Y39176D01*
X314591Y40698D01*
X312280Y41656D01*
X311300Y41785D01*
D02*
G37*
G36*
X360000Y103098D02*
X358049Y102710D01*
X356395Y101605D01*
X355290Y99951D01*
X354902Y98000D01*
X355290Y96049D01*
X356395Y94395D01*
X358049Y93290D01*
X360000Y92902D01*
X361951Y93290D01*
X363605Y94395D01*
X364710Y96049D01*
X365098Y98000D01*
X364710Y99951D01*
X363605Y101605D01*
X361951Y102710D01*
X360000Y103098D01*
D02*
G37*
G36*
X313000Y91098D02*
X311049Y90710D01*
X309395Y89605D01*
X308290Y87951D01*
X307902Y86000D01*
X308290Y84049D01*
X309395Y82395D01*
X311049Y81290D01*
X313000Y80902D01*
X314951Y81290D01*
X316605Y82395D01*
X317710Y84049D01*
X318098Y86000D01*
X317710Y87951D01*
X316605Y89605D01*
X314951Y90710D01*
X313000Y91098D01*
D02*
G37*
G36*
X370182Y28900D02*
X362100D01*
Y19016D01*
X363080Y19145D01*
X365391Y20102D01*
X367375Y21625D01*
X368898Y23609D01*
X369855Y25920D01*
X370182Y28400D01*
Y28900D01*
D02*
G37*
G36*
X359100Y41785D02*
X358120Y41656D01*
X355809Y40698D01*
X353825Y39176D01*
X352302Y37191D01*
X351344Y34880D01*
X351018Y32400D01*
Y31900D01*
X359100D01*
Y41785D01*
D02*
G37*
G36*
X362100D02*
Y31900D01*
X370182D01*
Y32400D01*
X369855Y34880D01*
X368898Y37191D01*
X367375Y39176D01*
X365391Y40698D01*
X363080Y41656D01*
X362100Y41785D01*
D02*
G37*
G36*
X124000Y98182D02*
X123500D01*
Y90100D01*
X133385D01*
X133256Y91080D01*
X132298Y93391D01*
X130775Y95375D01*
X128791Y96898D01*
X126480Y97856D01*
X124000Y98182D01*
D02*
G37*
G36*
X359100Y28900D02*
X351018D01*
Y28400D01*
X351344Y25920D01*
X352302Y23609D01*
X353825Y21625D01*
X355809Y20102D01*
X358120Y19145D01*
X359100Y19016D01*
Y28900D01*
D02*
G37*
G36*
X133385Y87100D02*
X123500D01*
Y79018D01*
X124000D01*
X126480Y79345D01*
X128791Y80302D01*
X130775Y81825D01*
X132298Y83809D01*
X133256Y86120D01*
X133385Y87100D01*
D02*
G37*
G36*
X120500D02*
X110616D01*
X110744Y86120D01*
X111702Y83809D01*
X113224Y81825D01*
X115209Y80302D01*
X117520Y79345D01*
X120000Y79018D01*
X120500D01*
Y87100D01*
D02*
G37*
G36*
Y98182D02*
X120000D01*
X117520Y97856D01*
X115209Y96898D01*
X113224Y95375D01*
X111702Y93391D01*
X110744Y91080D01*
X110616Y90100D01*
X120500D01*
Y98182D01*
D02*
G37*
G36*
X202000Y100098D02*
X200049Y99710D01*
X198395Y98605D01*
X197290Y96951D01*
X196902Y95000D01*
X197290Y93049D01*
X198395Y91395D01*
X200049Y90290D01*
X202000Y89902D01*
X203951Y90290D01*
X205605Y91395D01*
X206710Y93049D01*
X207098Y95000D01*
X206710Y96951D01*
X205605Y98605D01*
X203951Y99710D01*
X202000Y100098D01*
D02*
G37*
G36*
X156000Y181098D02*
X154049Y180710D01*
X152395Y179605D01*
X151290Y177951D01*
X150902Y176000D01*
X151290Y174049D01*
X152395Y172395D01*
X154049Y171290D01*
X156000Y170902D01*
X157951Y171290D01*
X159605Y172395D01*
X160710Y174049D01*
X161098Y176000D01*
X160710Y177951D01*
X159605Y179605D01*
X157951Y180710D01*
X156000Y181098D01*
D02*
G37*
G36*
X124000Y123582D02*
X123500D01*
Y115500D01*
X133385D01*
X133256Y116480D01*
X132298Y118791D01*
X130775Y120775D01*
X128791Y122298D01*
X126480Y123256D01*
X124000Y123582D01*
D02*
G37*
G36*
X120500D02*
X120000D01*
X117520Y123256D01*
X115209Y122298D01*
X113224Y120775D01*
X111702Y118791D01*
X110744Y116480D01*
X110616Y115500D01*
X120500D01*
Y123582D01*
D02*
G37*
G36*
X598489Y256700D02*
X590100D01*
Y248311D01*
X591211Y248457D01*
X593643Y249465D01*
X595732Y251068D01*
X597335Y253157D01*
X598343Y255590D01*
X598489Y256700D01*
D02*
G37*
G36*
X188500Y255098D02*
X186549Y254710D01*
X184895Y253605D01*
X183790Y251951D01*
X183402Y250000D01*
X183790Y248049D01*
X184895Y246395D01*
X186549Y245290D01*
X188500Y244902D01*
X190451Y245290D01*
X192105Y246395D01*
X193210Y248049D01*
X193598Y250000D01*
X193210Y251951D01*
X192105Y253605D01*
X190451Y254710D01*
X188500Y255098D01*
D02*
G37*
G36*
X587100Y256700D02*
X578711D01*
X578857Y255590D01*
X579865Y253157D01*
X581468Y251068D01*
X583557Y249465D01*
X585989Y248457D01*
X587100Y248311D01*
Y256700D01*
D02*
G37*
G36*
Y268089D02*
X585989Y267943D01*
X583557Y266935D01*
X581468Y265332D01*
X579865Y263243D01*
X578857Y260811D01*
X578711Y259700D01*
X587100D01*
Y268089D01*
D02*
G37*
G36*
X148500Y264598D02*
X146549Y264210D01*
X144895Y263105D01*
X143790Y261451D01*
X143402Y259500D01*
X143790Y257549D01*
X144895Y255895D01*
X146549Y254790D01*
X148500Y254402D01*
X150451Y254790D01*
X152105Y255895D01*
X153210Y257549D01*
X153598Y259500D01*
X153210Y261451D01*
X152105Y263105D01*
X150451Y264210D01*
X148500Y264598D01*
D02*
G37*
G36*
X204500Y233098D02*
X202549Y232710D01*
X200895Y231605D01*
X199790Y229951D01*
X199402Y228000D01*
X199790Y226049D01*
X200895Y224395D01*
X202549Y223290D01*
X204500Y222902D01*
X206451Y223290D01*
X208105Y224395D01*
X209210Y226049D01*
X209598Y228000D01*
X209210Y229951D01*
X208105Y231605D01*
X206451Y232710D01*
X204500Y233098D01*
D02*
G37*
G36*
X126000Y206098D02*
X124049Y205710D01*
X122395Y204605D01*
X121290Y202951D01*
X120902Y201000D01*
X121290Y199049D01*
X122395Y197395D01*
X124049Y196290D01*
X126000Y195902D01*
X127951Y196290D01*
X129605Y197395D01*
X130710Y199049D01*
X131098Y201000D01*
X130710Y202951D01*
X129605Y204605D01*
X127951Y205710D01*
X126000Y206098D01*
D02*
G37*
G36*
X112000Y239098D02*
X110049Y238710D01*
X108395Y237605D01*
X107290Y235951D01*
X106902Y234000D01*
X107290Y232049D01*
X108395Y230395D01*
X110049Y229290D01*
X112000Y228902D01*
X113951Y229290D01*
X115605Y230395D01*
X116710Y232049D01*
X117098Y234000D01*
X116710Y235951D01*
X115605Y237605D01*
X113951Y238710D01*
X112000Y239098D01*
D02*
G37*
G36*
X568000Y249098D02*
X566049Y248710D01*
X564395Y247605D01*
X563290Y245951D01*
X562902Y244000D01*
X563290Y242049D01*
X564395Y240395D01*
X566049Y239290D01*
X568000Y238902D01*
X569951Y239290D01*
X571605Y240395D01*
X572710Y242049D01*
X573098Y244000D01*
X572710Y245951D01*
X571605Y247605D01*
X569951Y248710D01*
X568000Y249098D01*
D02*
G37*
G36*
X148500Y239598D02*
X146549Y239210D01*
X144895Y238105D01*
X143790Y236451D01*
X143402Y234500D01*
X143790Y232549D01*
X144895Y230895D01*
X146549Y229790D01*
X148500Y229402D01*
X150451Y229790D01*
X152105Y230895D01*
X153210Y232549D01*
X153598Y234500D01*
X153210Y236451D01*
X152105Y238105D01*
X150451Y239210D01*
X148500Y239598D01*
D02*
G37*
G36*
X133385Y112500D02*
X123500D01*
Y104418D01*
X124000D01*
X126480Y104745D01*
X128791Y105702D01*
X130775Y107225D01*
X132298Y109209D01*
X133256Y111520D01*
X133385Y112500D01*
D02*
G37*
G36*
X120500D02*
X110616D01*
X110744Y111520D01*
X111702Y109209D01*
X113224Y107225D01*
X115209Y105702D01*
X117520Y104745D01*
X120000Y104418D01*
X120500D01*
Y112500D01*
D02*
G37*
G36*
X294560Y525086D02*
X291950Y524743D01*
X289517Y523735D01*
X287428Y522132D01*
X285825Y520043D01*
X284817Y517611D01*
X284474Y515000D01*
Y511000D01*
X284817Y508390D01*
X285825Y505957D01*
X287428Y503868D01*
X289517Y502265D01*
X291950Y501257D01*
X294560Y500914D01*
X297171Y501257D01*
X299603Y502265D01*
X301692Y503868D01*
X303295Y505957D01*
X304303Y508390D01*
X304646Y511000D01*
Y515000D01*
X304303Y517611D01*
X303295Y520043D01*
X301692Y522132D01*
X299603Y523735D01*
X297171Y524743D01*
X294560Y525086D01*
D02*
G37*
G36*
X269160D02*
X266549Y524743D01*
X264117Y523735D01*
X262028Y522132D01*
X260425Y520043D01*
X259417Y517611D01*
X259074Y515000D01*
Y511000D01*
X259417Y508390D01*
X260425Y505957D01*
X262028Y503868D01*
X264117Y502265D01*
X266549Y501257D01*
X269160Y500914D01*
X271770Y501257D01*
X274203Y502265D01*
X276292Y503868D01*
X277895Y505957D01*
X278903Y508390D01*
X279246Y511000D01*
Y515000D01*
X278903Y517611D01*
X277895Y520043D01*
X276292Y522132D01*
X274203Y523735D01*
X271770Y524743D01*
X269160Y525086D01*
D02*
G37*
G36*
X319960D02*
X317349Y524743D01*
X314917Y523735D01*
X312828Y522132D01*
X311225Y520043D01*
X310217Y517611D01*
X309874Y515000D01*
Y511000D01*
X310217Y508390D01*
X311225Y505957D01*
X312828Y503868D01*
X314917Y502265D01*
X317349Y501257D01*
X319960Y500914D01*
X322570Y501257D01*
X325003Y502265D01*
X327092Y503868D01*
X328695Y505957D01*
X329703Y508390D01*
X330046Y511000D01*
Y515000D01*
X329703Y517611D01*
X328695Y520043D01*
X327092Y522132D01*
X325003Y523735D01*
X322570Y524743D01*
X319960Y525086D01*
D02*
G37*
G36*
X370760D02*
X368149Y524743D01*
X365717Y523735D01*
X363628Y522132D01*
X362025Y520043D01*
X361017Y517611D01*
X360674Y515000D01*
Y511000D01*
X361017Y508390D01*
X362025Y505957D01*
X363628Y503868D01*
X365717Y502265D01*
X368149Y501257D01*
X370760Y500914D01*
X373371Y501257D01*
X375803Y502265D01*
X377892Y503868D01*
X379495Y505957D01*
X380503Y508390D01*
X380846Y511000D01*
Y515000D01*
X380503Y517611D01*
X379495Y520043D01*
X377892Y522132D01*
X375803Y523735D01*
X373371Y524743D01*
X370760Y525086D01*
D02*
G37*
G36*
X345360D02*
X342749Y524743D01*
X340317Y523735D01*
X338228Y522132D01*
X336625Y520043D01*
X335617Y517611D01*
X335274Y515000D01*
Y511000D01*
X335617Y508390D01*
X336625Y505957D01*
X338228Y503868D01*
X340317Y502265D01*
X342749Y501257D01*
X345360Y500914D01*
X347971Y501257D01*
X350403Y502265D01*
X352492Y503868D01*
X354095Y505957D01*
X355103Y508390D01*
X355446Y511000D01*
Y515000D01*
X355103Y517611D01*
X354095Y520043D01*
X352492Y522132D01*
X350403Y523735D01*
X347971Y524743D01*
X345360Y525086D01*
D02*
G37*
G36*
X66889Y505900D02*
X58500D01*
Y497511D01*
X59611Y497657D01*
X62043Y498665D01*
X64132Y500268D01*
X65735Y502357D01*
X66743Y504790D01*
X66889Y505900D01*
D02*
G37*
G36*
X55500D02*
X47111D01*
X47257Y504790D01*
X48265Y502357D01*
X49868Y500268D01*
X51957Y498665D01*
X54390Y497657D01*
X55500Y497511D01*
Y505900D01*
D02*
G37*
G36*
X192960Y525086D02*
X190350Y524743D01*
X187917Y523735D01*
X185828Y522132D01*
X184225Y520043D01*
X183217Y517611D01*
X182874Y515000D01*
Y511000D01*
X183217Y508390D01*
X184225Y505957D01*
X185828Y503868D01*
X187917Y502265D01*
X190350Y501257D01*
X192960Y500914D01*
X195571Y501257D01*
X198003Y502265D01*
X200092Y503868D01*
X201695Y505957D01*
X202703Y508390D01*
X203046Y511000D01*
Y515000D01*
X202703Y517611D01*
X201695Y520043D01*
X200092Y522132D01*
X198003Y523735D01*
X195571Y524743D01*
X192960Y525086D01*
D02*
G37*
G36*
X243760D02*
X241150Y524743D01*
X238717Y523735D01*
X236628Y522132D01*
X235025Y520043D01*
X234017Y517611D01*
X233674Y515000D01*
Y511000D01*
X234017Y508390D01*
X235025Y505957D01*
X236628Y503868D01*
X238717Y502265D01*
X241150Y501257D01*
X243760Y500914D01*
X246371Y501257D01*
X248803Y502265D01*
X250892Y503868D01*
X252495Y505957D01*
X253503Y508390D01*
X253846Y511000D01*
Y515000D01*
X253503Y517611D01*
X252495Y520043D01*
X250892Y522132D01*
X248803Y523735D01*
X246371Y524743D01*
X243760Y525086D01*
D02*
G37*
G36*
X218360D02*
X215749Y524743D01*
X213317Y523735D01*
X211228Y522132D01*
X209625Y520043D01*
X208617Y517611D01*
X208274Y515000D01*
Y511000D01*
X208617Y508390D01*
X209625Y505957D01*
X211228Y503868D01*
X213317Y502265D01*
X215749Y501257D01*
X218360Y500914D01*
X220970Y501257D01*
X223403Y502265D01*
X225492Y503868D01*
X227095Y505957D01*
X228103Y508390D01*
X228446Y511000D01*
Y515000D01*
X228103Y517611D01*
X227095Y520043D01*
X225492Y522132D01*
X223403Y523735D01*
X220970Y524743D01*
X218360Y525086D01*
D02*
G37*
G36*
X396160D02*
X393549Y524743D01*
X391117Y523735D01*
X389028Y522132D01*
X387425Y520043D01*
X386417Y517611D01*
X386074Y515000D01*
Y511000D01*
X386417Y508390D01*
X387425Y505957D01*
X389028Y503868D01*
X391117Y502265D01*
X393549Y501257D01*
X396160Y500914D01*
X398770Y501257D01*
X401203Y502265D01*
X403292Y503868D01*
X404895Y505957D01*
X405903Y508390D01*
X406246Y511000D01*
Y515000D01*
X405903Y517611D01*
X404895Y520043D01*
X403292Y522132D01*
X401203Y523735D01*
X398770Y524743D01*
X396160Y525086D01*
D02*
G37*
G36*
X429560Y525039D02*
X413560D01*
X412780Y524884D01*
X412118Y524442D01*
X411676Y523780D01*
X411521Y523000D01*
Y503000D01*
X411676Y502220D01*
X412118Y501558D01*
X412780Y501116D01*
X413560Y500961D01*
X429560D01*
X430340Y501116D01*
X431002Y501558D01*
X431444Y502220D01*
X431599Y503000D01*
Y523000D01*
X431444Y523780D01*
X431002Y524442D01*
X430340Y524884D01*
X429560Y525039D01*
D02*
G37*
G36*
X589200Y525086D02*
X586590Y524743D01*
X584157Y523735D01*
X582068Y522132D01*
X580465Y520043D01*
X579457Y517611D01*
X579114Y515000D01*
Y511000D01*
X579457Y508390D01*
X580465Y505957D01*
X582068Y503868D01*
X584157Y502265D01*
X586590Y501257D01*
X589200Y500914D01*
X591810Y501257D01*
X594243Y502265D01*
X596332Y503868D01*
X597935Y505957D01*
X598943Y508390D01*
X599286Y511000D01*
Y515000D01*
X598943Y517611D01*
X597935Y520043D01*
X596332Y522132D01*
X594243Y523735D01*
X591810Y524743D01*
X589200Y525086D01*
D02*
G37*
G36*
X55500Y517289D02*
X54390Y517143D01*
X51957Y516135D01*
X49868Y514532D01*
X48265Y512443D01*
X47257Y510010D01*
X47111Y508900D01*
X55500D01*
Y517289D01*
D02*
G37*
G36*
X144700Y531117D02*
X144601Y531097D01*
X144500Y531107D01*
X141364Y530798D01*
X141171Y530740D01*
X140971Y530720D01*
X137956Y529805D01*
X137778Y529710D01*
X137586Y529652D01*
X134807Y528166D01*
X134651Y528039D01*
X134474Y527944D01*
X132038Y525945D01*
X131910Y525789D01*
X131755Y525662D01*
X129756Y523226D01*
X129661Y523049D01*
X129534Y522893D01*
X128048Y520114D01*
X127990Y519922D01*
X127895Y519744D01*
X126980Y516729D01*
X126960Y516529D01*
X126902Y516336D01*
X126593Y513200D01*
X126613Y513000D01*
X126593Y512800D01*
X126902Y509664D01*
X126960Y509471D01*
X126980Y509272D01*
X127895Y506255D01*
X127990Y506078D01*
X128048Y505886D01*
X129534Y503107D01*
X129661Y502951D01*
X129756Y502774D01*
X131755Y500338D01*
X131910Y500210D01*
X132038Y500055D01*
X134474Y498056D01*
X134651Y497961D01*
X134807Y497834D01*
X137586Y496348D01*
X137778Y496290D01*
X137956Y496195D01*
X140971Y495280D01*
X141171Y495260D01*
X141364Y495202D01*
X144500Y494893D01*
X144601Y494903D01*
X144700Y494883D01*
X144799Y494903D01*
X144900Y494893D01*
X148036Y495202D01*
X148229Y495260D01*
X148428Y495280D01*
X151445Y496195D01*
X151622Y496290D01*
X151814Y496348D01*
X154593Y497834D01*
X154749Y497961D01*
X154926Y498056D01*
X157362Y500055D01*
X157490Y500210D01*
X157645Y500338D01*
X159644Y502774D01*
X159739Y502951D01*
X159866Y503107D01*
X161352Y505886D01*
X161410Y506078D01*
X161505Y506255D01*
X162420Y509272D01*
X162440Y509471D01*
X162498Y509664D01*
X162807Y512800D01*
X162787Y513000D01*
X162807Y513200D01*
X162498Y516336D01*
X162440Y516529D01*
X162420Y516729D01*
X161505Y519744D01*
X161410Y519922D01*
X161352Y520114D01*
X159866Y522893D01*
X159739Y523049D01*
X159644Y523226D01*
X157645Y525662D01*
X157490Y525789D01*
X157362Y525945D01*
X154926Y527944D01*
X154749Y528039D01*
X154593Y528166D01*
X151814Y529652D01*
X151622Y529710D01*
X151445Y529805D01*
X148428Y530720D01*
X148229Y530740D01*
X148036Y530798D01*
X144900Y531107D01*
X144799Y531097D01*
X144700Y531117D01*
D02*
G37*
G36*
X58500Y517289D02*
Y508900D01*
X66889D01*
X66743Y510010D01*
X65735Y512443D01*
X64132Y514532D01*
X62043Y516135D01*
X59611Y517143D01*
X58500Y517289D01*
D02*
G37*
G36*
X487600Y525086D02*
X484990Y524743D01*
X482557Y523735D01*
X480468Y522132D01*
X478865Y520043D01*
X477857Y517611D01*
X477514Y515000D01*
Y511000D01*
X477857Y508390D01*
X478865Y505957D01*
X480468Y503868D01*
X482557Y502265D01*
X484990Y501257D01*
X487600Y500914D01*
X490210Y501257D01*
X492643Y502265D01*
X494732Y503868D01*
X496335Y505957D01*
X497343Y508390D01*
X497686Y511000D01*
Y515000D01*
X497343Y517611D01*
X496335Y520043D01*
X494732Y522132D01*
X492643Y523735D01*
X490210Y524743D01*
X487600Y525086D01*
D02*
G37*
G36*
X462200D02*
X459590Y524743D01*
X457157Y523735D01*
X455068Y522132D01*
X453465Y520043D01*
X452457Y517611D01*
X452114Y515000D01*
Y511000D01*
X452457Y508390D01*
X453465Y505957D01*
X455068Y503868D01*
X457157Y502265D01*
X459590Y501257D01*
X462200Y500914D01*
X464810Y501257D01*
X467243Y502265D01*
X469332Y503868D01*
X470935Y505957D01*
X471943Y508390D01*
X472286Y511000D01*
Y515000D01*
X471943Y517611D01*
X470935Y520043D01*
X469332Y522132D01*
X467243Y523735D01*
X464810Y524743D01*
X462200Y525086D01*
D02*
G37*
G36*
X513000D02*
X510390Y524743D01*
X507957Y523735D01*
X505868Y522132D01*
X504265Y520043D01*
X503257Y517611D01*
X502914Y515000D01*
Y511000D01*
X503257Y508390D01*
X504265Y505957D01*
X505868Y503868D01*
X507957Y502265D01*
X510390Y501257D01*
X513000Y500914D01*
X515611Y501257D01*
X518043Y502265D01*
X520132Y503868D01*
X521735Y505957D01*
X522743Y508390D01*
X523086Y511000D01*
Y515000D01*
X522743Y517611D01*
X521735Y520043D01*
X520132Y522132D01*
X518043Y523735D01*
X515611Y524743D01*
X513000Y525086D01*
D02*
G37*
G36*
X563800D02*
X561189Y524743D01*
X558757Y523735D01*
X556668Y522132D01*
X555065Y520043D01*
X554057Y517611D01*
X553714Y515000D01*
Y511000D01*
X554057Y508390D01*
X555065Y505957D01*
X556668Y503868D01*
X558757Y502265D01*
X561189Y501257D01*
X563800Y500914D01*
X566410Y501257D01*
X568843Y502265D01*
X570932Y503868D01*
X572535Y505957D01*
X573543Y508390D01*
X573886Y511000D01*
Y515000D01*
X573543Y517611D01*
X572535Y520043D01*
X570932Y522132D01*
X568843Y523735D01*
X566410Y524743D01*
X563800Y525086D01*
D02*
G37*
G36*
X538400D02*
X535789Y524743D01*
X533357Y523735D01*
X531268Y522132D01*
X529665Y520043D01*
X528657Y517611D01*
X528314Y515000D01*
Y511000D01*
X528657Y508390D01*
X529665Y505957D01*
X531268Y503868D01*
X533357Y502265D01*
X535789Y501257D01*
X538400Y500914D01*
X541011Y501257D01*
X543443Y502265D01*
X545532Y503868D01*
X547135Y505957D01*
X548143Y508390D01*
X548486Y511000D01*
Y515000D01*
X548143Y517611D01*
X547135Y520043D01*
X545532Y522132D01*
X543443Y523735D01*
X541011Y524743D01*
X538400Y525086D01*
D02*
G37*
G36*
X252000Y494098D02*
X250049Y493710D01*
X248395Y492605D01*
X247290Y490951D01*
X246902Y489000D01*
X247290Y487049D01*
X248395Y485395D01*
X250049Y484290D01*
X252000Y483902D01*
X253951Y484290D01*
X255605Y485395D01*
X256710Y487049D01*
X257098Y489000D01*
X256710Y490951D01*
X255605Y492605D01*
X253951Y493710D01*
X252000Y494098D01*
D02*
G37*
G36*
X192000Y310598D02*
X190049Y310210D01*
X188395Y309105D01*
X187290Y307451D01*
X186902Y305500D01*
X187290Y303549D01*
X188395Y301895D01*
X190049Y300790D01*
X192000Y300402D01*
X193951Y300790D01*
X195605Y301895D01*
X196710Y303549D01*
X197098Y305500D01*
X196710Y307451D01*
X195605Y309105D01*
X193951Y310210D01*
X192000Y310598D01*
D02*
G37*
G36*
X588600Y319591D02*
X585859Y319230D01*
X583305Y318172D01*
X581111Y316489D01*
X579428Y314295D01*
X578370Y311741D01*
X578009Y309000D01*
X578370Y306259D01*
X579428Y303705D01*
X581111Y301511D01*
X583305Y299828D01*
X585859Y298770D01*
X588600Y298409D01*
X591341Y298770D01*
X593895Y299828D01*
X596089Y301511D01*
X597772Y303705D01*
X598830Y306259D01*
X599191Y309000D01*
X598830Y311741D01*
X597772Y314295D01*
X596089Y316489D01*
X593895Y318172D01*
X591341Y319230D01*
X588600Y319591D01*
D02*
G37*
G36*
X166000Y313098D02*
X164049Y312710D01*
X162395Y311605D01*
X161290Y309951D01*
X160902Y308000D01*
X161290Y306049D01*
X162395Y304395D01*
X164049Y303290D01*
X166000Y302902D01*
X167951Y303290D01*
X169605Y304395D01*
X170710Y306049D01*
X171098Y308000D01*
X170710Y309951D01*
X169605Y311605D01*
X167951Y312710D01*
X166000Y313098D01*
D02*
G37*
G36*
X571000Y378098D02*
X569049Y377710D01*
X567395Y376605D01*
X566290Y374951D01*
X565902Y373000D01*
X566290Y371049D01*
X567395Y369395D01*
X569049Y368290D01*
X571000Y367902D01*
X572951Y368290D01*
X574605Y369395D01*
X575710Y371049D01*
X576098Y373000D01*
X575710Y374951D01*
X574605Y376605D01*
X572951Y377710D01*
X571000Y378098D01*
D02*
G37*
G36*
X603000Y350098D02*
X601049Y349710D01*
X599395Y348605D01*
X598290Y346951D01*
X597902Y345000D01*
X598290Y343049D01*
X599395Y341395D01*
X601049Y340290D01*
X603000Y339902D01*
X604951Y340290D01*
X606605Y341395D01*
X607710Y343049D01*
X608098Y345000D01*
X607710Y346951D01*
X606605Y348605D01*
X604951Y349710D01*
X603000Y350098D01*
D02*
G37*
G36*
X588600Y294191D02*
X585859Y293830D01*
X583305Y292772D01*
X581111Y291089D01*
X579428Y288895D01*
X578370Y286341D01*
X578009Y283600D01*
X578370Y280859D01*
X579428Y278305D01*
X581111Y276111D01*
X583305Y274428D01*
X585859Y273370D01*
X588600Y273009D01*
X591341Y273370D01*
X593895Y274428D01*
X596089Y276111D01*
X597772Y278305D01*
X598830Y280859D01*
X599191Y283600D01*
X598830Y286341D01*
X597772Y288895D01*
X596089Y291089D01*
X593895Y292772D01*
X591341Y293830D01*
X588600Y294191D01*
D02*
G37*
G36*
X590100Y268089D02*
Y259700D01*
X598489D01*
X598343Y260811D01*
X597335Y263243D01*
X595732Y265332D01*
X593643Y266935D01*
X591211Y267943D01*
X590100Y268089D01*
D02*
G37*
G36*
X180000Y286098D02*
X178049Y285710D01*
X176395Y284605D01*
X175290Y282951D01*
X174902Y281000D01*
X175290Y279049D01*
X176395Y277395D01*
X178049Y276290D01*
X180000Y275902D01*
X181951Y276290D01*
X183605Y277395D01*
X184710Y279049D01*
X185098Y281000D01*
X184710Y282951D01*
X183605Y284605D01*
X181951Y285710D01*
X180000Y286098D01*
D02*
G37*
G36*
X208000Y287098D02*
X206049Y286710D01*
X204395Y285605D01*
X203727Y284605D01*
X203605D01*
X201951Y285710D01*
X200000Y286098D01*
X198049Y285710D01*
X196395Y284605D01*
X195290Y282951D01*
X194902Y281000D01*
X195290Y279049D01*
X196395Y277395D01*
X198049Y276290D01*
X200000Y275902D01*
X201951Y276290D01*
X203605Y277395D01*
X205298Y277644D01*
X205340Y277611D01*
Y276236D01*
X204395Y275605D01*
X203290Y273951D01*
X202902Y272000D01*
X202993Y271541D01*
X201951Y270710D01*
X200000Y271098D01*
X198049Y270710D01*
X196395Y269605D01*
X195290Y267951D01*
X194902Y266000D01*
X195290Y264049D01*
X196395Y262395D01*
X198049Y261290D01*
X200000Y260902D01*
X201951Y261290D01*
X203605Y262395D01*
X204710Y264049D01*
X205098Y266000D01*
X205007Y266459D01*
X206049Y267290D01*
X208000Y266902D01*
X209951Y267290D01*
X211605Y268395D01*
X212710Y270049D01*
X213098Y272000D01*
X212710Y273951D01*
X211605Y275605D01*
X210660Y276236D01*
Y277764D01*
X211605Y278395D01*
X212710Y280049D01*
X213098Y282000D01*
X212710Y283951D01*
X211605Y285605D01*
X209951Y286710D01*
X208000Y287098D01*
D02*
G37*
G36*
X132000Y291098D02*
X130049Y290710D01*
X128395Y289605D01*
X127290Y287951D01*
X126902Y286000D01*
X127290Y284049D01*
X128395Y282395D01*
X130049Y281290D01*
X132000Y280902D01*
X133951Y281290D01*
X135605Y282395D01*
X136710Y284049D01*
X137098Y286000D01*
X136710Y287951D01*
X135605Y289605D01*
X133951Y290710D01*
X132000Y291098D01*
D02*
G37*
G36*
X582500Y413598D02*
X580549Y413210D01*
X578895Y412105D01*
X577790Y410451D01*
X577402Y408500D01*
X577790Y406549D01*
X578895Y404895D01*
X580549Y403790D01*
X582500Y403402D01*
X584451Y403790D01*
X586105Y404895D01*
X587210Y406549D01*
X587598Y408500D01*
X587210Y410451D01*
X586105Y412105D01*
X584451Y413210D01*
X582500Y413598D01*
D02*
G37*
G36*
X279000Y453098D02*
X277049Y452710D01*
X275395Y451605D01*
X274290Y449951D01*
X273902Y448000D01*
X274290Y446049D01*
X275395Y444395D01*
X277049Y443290D01*
X279000Y442902D01*
X280951Y443290D01*
X282605Y444395D01*
X283710Y446049D01*
X284098Y448000D01*
X283710Y449951D01*
X282605Y451605D01*
X280951Y452710D01*
X279000Y453098D01*
D02*
G37*
G36*
X174000Y449098D02*
X172049Y448710D01*
X170395Y447605D01*
X169290Y445951D01*
X168902Y444000D01*
X169290Y442049D01*
X170395Y440395D01*
X172049Y439290D01*
X174000Y438902D01*
X175951Y439290D01*
X177605Y440395D01*
X178710Y442049D01*
X179098Y444000D01*
X178710Y445951D01*
X177605Y447605D01*
X175951Y448710D01*
X174000Y449098D01*
D02*
G37*
G36*
X57000Y467191D02*
X54259Y466830D01*
X51705Y465772D01*
X49511Y464089D01*
X47828Y461895D01*
X46770Y459341D01*
X46409Y456600D01*
X46770Y453859D01*
X47828Y451305D01*
X49511Y449111D01*
X51705Y447428D01*
X54259Y446370D01*
X57000Y446009D01*
X59741Y446370D01*
X62295Y447428D01*
X64489Y449111D01*
X66172Y451305D01*
X67230Y453859D01*
X67591Y456600D01*
X67230Y459341D01*
X66172Y461895D01*
X64489Y464089D01*
X62295Y465772D01*
X59741Y466830D01*
X57000Y467191D01*
D02*
G37*
G36*
X224000Y487098D02*
X222049Y486710D01*
X220395Y485605D01*
X219290Y483951D01*
X218902Y482000D01*
X219290Y480049D01*
X220395Y478395D01*
X222049Y477290D01*
X224000Y476902D01*
X225951Y477290D01*
X227605Y478395D01*
X228710Y480049D01*
X229098Y482000D01*
X228710Y483951D01*
X227605Y485605D01*
X225951Y486710D01*
X224000Y487098D01*
D02*
G37*
G36*
X57000Y492591D02*
X54259Y492230D01*
X51705Y491172D01*
X49511Y489489D01*
X47828Y487295D01*
X46770Y484741D01*
X46409Y482000D01*
X46770Y479259D01*
X47828Y476705D01*
X49511Y474511D01*
X51705Y472828D01*
X54259Y471770D01*
X57000Y471409D01*
X59741Y471770D01*
X62295Y472828D01*
X64489Y474511D01*
X66172Y476705D01*
X67230Y479259D01*
X67591Y482000D01*
X67230Y484741D01*
X66172Y487295D01*
X64489Y489489D01*
X62295Y491172D01*
X59741Y492230D01*
X57000Y492591D01*
D02*
G37*
G36*
X64500Y436099D02*
X62549Y435711D01*
X60895Y434606D01*
X59790Y432952D01*
X59402Y431001D01*
X59790Y429050D01*
X60895Y427396D01*
X62549Y426291D01*
X64500Y425903D01*
X66451Y426291D01*
X68105Y427396D01*
X69210Y429050D01*
X69598Y431001D01*
X69210Y432952D01*
X68105Y434606D01*
X66451Y435711D01*
X64500Y436099D01*
D02*
G37*
G36*
X180500Y415598D02*
X178549Y415210D01*
X176895Y414105D01*
X175790Y412451D01*
X175402Y410500D01*
X175790Y408549D01*
X176895Y406895D01*
X178549Y405790D01*
X180500Y405402D01*
X182451Y405790D01*
X184105Y406895D01*
X185210Y408549D01*
X185598Y410500D01*
X185210Y412451D01*
X184105Y414105D01*
X182451Y415210D01*
X180500Y415598D01*
D02*
G37*
G36*
X206500Y438598D02*
X204549Y438210D01*
X202895Y437105D01*
X201790Y435451D01*
X201402Y433500D01*
X201790Y431549D01*
X202895Y429895D01*
X204549Y428790D01*
X206500Y428402D01*
X208451Y428790D01*
X210105Y429895D01*
X211210Y431549D01*
X211598Y433500D01*
X211210Y435451D01*
X210105Y437105D01*
X208451Y438210D01*
X206500Y438598D01*
D02*
G37*
G36*
X569000Y448098D02*
X567049Y447710D01*
X565395Y446605D01*
X564290Y444951D01*
X563902Y443000D01*
X564290Y441049D01*
X565395Y439395D01*
X567049Y438290D01*
X569000Y437902D01*
X570951Y438290D01*
X572605Y439395D01*
X573710Y441049D01*
X574098Y443000D01*
X573710Y444951D01*
X572605Y446605D01*
X570951Y447710D01*
X569000Y448098D01*
D02*
G37*
G36*
X611000Y444098D02*
X609049Y443710D01*
X607395Y442605D01*
X606290Y440951D01*
X605902Y439000D01*
X606290Y437049D01*
X607395Y435395D01*
X609049Y434290D01*
X611000Y433902D01*
X612951Y434290D01*
X614605Y435395D01*
X615710Y437049D01*
X616098Y439000D01*
X615710Y440951D01*
X614605Y442605D01*
X612951Y443710D01*
X611000Y444098D01*
D02*
G37*
%LPD*%
D41*
X360600Y30400D02*
D03*
X309800D02*
D03*
D43*
X122000Y139400D02*
D03*
D44*
Y114000D02*
D03*
Y88600D02*
D03*
D47*
X57000Y507400D02*
D03*
X588600Y258200D02*
D03*
D50*
X35000Y33000D02*
D03*
D51*
X64000Y296000D02*
D03*
Y304000D02*
D03*
X497000Y242000D02*
D03*
X214700Y95300D02*
D03*
X166000Y228000D02*
D03*
X349500Y108500D02*
D03*
X204000Y207000D02*
D03*
X82000Y132000D02*
D03*
Y142000D02*
D03*
Y152000D02*
D03*
X56000D02*
D03*
Y142000D02*
D03*
Y132000D02*
D03*
X227400Y95300D02*
D03*
X247000Y123000D02*
D03*
X192000Y399000D02*
D03*
X195000Y469000D02*
D03*
X157000Y463000D02*
D03*
X75000Y420500D02*
D03*
X592000Y481000D02*
D03*
X594000Y391000D02*
D03*
X589000Y373000D02*
D03*
X576000Y335000D02*
D03*
X579500Y233000D02*
D03*
X250000Y468000D02*
D03*
X224000Y464000D02*
D03*
X279000Y64000D02*
D03*
X444000Y65000D02*
D03*
X463000Y86000D02*
D03*
X138000Y251000D02*
D03*
X112000Y253000D02*
D03*
X122000Y183000D02*
D03*
X110000Y165000D02*
D03*
X293000Y428000D02*
D03*
Y406000D02*
D03*
X609500Y233000D02*
D03*
X14000Y96000D02*
D03*
X23000D02*
D03*
X32000D02*
D03*
Y83000D02*
D03*
X23000D02*
D03*
X14000D02*
D03*
X56000Y119000D02*
D03*
Y108000D02*
D03*
Y98000D02*
D03*
X82000Y119000D02*
D03*
Y108000D02*
D03*
Y98000D02*
D03*
X280000Y104000D02*
D03*
X14000Y152000D02*
D03*
X23000D02*
D03*
X32000D02*
D03*
Y165000D02*
D03*
X24000D02*
D03*
X14000D02*
D03*
X298000Y81750D02*
D03*
X339000Y104000D02*
D03*
M02*
