G04 Layer_Physical_Order=2*
G04 Layer_Color=32768*
%FSLAX44Y44*%
%MOMM*%
G71*
G01*
G75*
%ADD52C,1.0160*%
%ADD53C,2.1160*%
G04:AMPARAMS|DCode=54|XSize=2.1mm|YSize=2.1mm|CornerRadius=0mm|HoleSize=0mm|Usage=FLASHONLY|Rotation=0.000|XOffset=0mm|YOffset=0mm|HoleType=Round|Shape=Relief|Width=0.3mm|Gap=0.2mm|Entries=4|*
%AMTHD54*
7,0,0,2.1000,1.7000,0.3000,45*
%
%ADD54THD54*%
%AMTHOVALD55*
21,1,0.7000,1.5000,0,0,0.0*
1,1,1.5000,-0.3500,0.0000*
1,1,1.5000,0.3500,0.0000*
21,0,0.7000,1.1000,0,0,0.0*
1,0,1.1000,-0.3500,0.0000*
1,0,1.1000,0.3500,0.0000*
4,0,4,-0.2439,-0.1061,-0.7743,-0.6364,-0.9864,-0.4243,-0.4561,0.1061,-0.2439,-0.1061,0.0*
4,0,4,0.4561,-0.1061,0.9864,0.4243,0.7743,0.6364,0.2439,0.1061,0.4561,-0.1061,0.0*
4,0,4,-0.4561,-0.1061,-0.9864,0.4243,-0.7743,0.6364,-0.2439,0.1061,-0.4561,-0.1061,0.0*
4,0,4,0.2439,-0.1061,0.7743,-0.6364,0.9864,-0.4243,0.4561,0.1061,0.2439,-0.1061,0.0*
%
%ADD55THOVALD55*%

G04:AMPARAMS|DCode=56|XSize=4.2mm|YSize=4.2mm|CornerRadius=0mm|HoleSize=0mm|Usage=FLASHONLY|Rotation=0.000|XOffset=0mm|YOffset=0mm|HoleType=Round|Shape=Relief|Width=0.3mm|Gap=0.2mm|Entries=4|*
%AMTHD56*
7,0,0,4.2000,3.8000,0.3000,45*
%
%ADD56THD56*%
%ADD57C,4.2160*%
G04:AMPARAMS|DCode=58|XSize=2.5mm|YSize=2.5mm|CornerRadius=0mm|HoleSize=0mm|Usage=FLASHONLY|Rotation=0.000|XOffset=0mm|YOffset=0mm|HoleType=Round|Shape=Relief|Width=0.3mm|Gap=0.2mm|Entries=4|*
%AMTHD58*
7,0,0,2.5000,2.1000,0.3000,45*
%
%ADD58THD58*%
%ADD59C,2.5160*%
%ADD60C,1.3160*%
D52*
X5000Y25000D02*
X5000Y518000D01*
X5000Y25000D02*
X25000Y5000D01*
X235000D01*
X255000Y-15000D01*
X670000Y-15000D01*
X693000Y8000D01*
X693000Y534000D02*
X693000Y8000D01*
X670000Y557000D02*
X693000Y534000D01*
X169000Y557000D02*
X670000Y557000D01*
X150000Y538000D02*
X169000Y557000D01*
X25000Y538000D02*
X150000D01*
X5000Y518000D02*
X25000Y538000D01*
D53*
X622000Y483000D02*
D03*
Y418000D02*
D03*
X257500Y76500D02*
D03*
X192500D02*
D03*
X614600Y208200D02*
D03*
X589200D02*
D03*
X563800D02*
D03*
X538400D02*
D03*
X513000D02*
D03*
X487600D02*
D03*
X462200D02*
D03*
X411400D02*
D03*
X386000D02*
D03*
X360600D02*
D03*
X335200D02*
D03*
X309800D02*
D03*
X284400D02*
D03*
X614600Y132000D02*
D03*
X589200D02*
D03*
X563800D02*
D03*
X538400D02*
D03*
X513000D02*
D03*
X487600D02*
D03*
X436800D02*
D03*
X411400D02*
D03*
X386000D02*
D03*
X360600D02*
D03*
X335200D02*
D03*
X309800D02*
D03*
X284400D02*
D03*
X122000Y139400D02*
D03*
Y114000D02*
D03*
Y88600D02*
D03*
X665000Y161000D02*
D03*
Y186400D02*
D03*
Y211800D02*
D03*
X32000Y420000D02*
D03*
Y394600D02*
D03*
Y369200D02*
D03*
Y343800D02*
D03*
X75600Y342600D02*
D03*
X101000D02*
D03*
X75600Y368000D02*
D03*
X101000D02*
D03*
X57000Y482000D02*
D03*
Y507400D02*
D03*
X31600Y456600D02*
D03*
Y482000D02*
D03*
Y507400D02*
D03*
X588600Y283600D02*
D03*
Y258200D02*
D03*
X614000Y309000D02*
D03*
Y283600D02*
D03*
Y258200D02*
D03*
X192960Y513000D02*
D03*
X218360D02*
D03*
X243760D02*
D03*
X294560D02*
D03*
X319960D02*
D03*
X345360D02*
D03*
X370760D02*
D03*
X396160D02*
D03*
X421560D02*
D03*
X513000Y30400D02*
D03*
X538400D02*
D03*
X563800D02*
D03*
X589200D02*
D03*
X614600D02*
D03*
X640000D02*
D03*
X462200Y513000D02*
D03*
X487600D02*
D03*
X513000D02*
D03*
X538400D02*
D03*
X563800D02*
D03*
X589200D02*
D03*
X614600D02*
D03*
X640000D02*
D03*
X462200Y30400D02*
D03*
X386000D02*
D03*
X360600D02*
D03*
X335200D02*
D03*
X309800D02*
D03*
X284400D02*
D03*
D54*
X667000Y483000D02*
D03*
Y418000D02*
D03*
X257500Y31500D02*
D03*
X192500D02*
D03*
X436800Y208200D02*
D03*
X462200Y132000D02*
D03*
X57000Y456600D02*
D03*
X588600Y309000D02*
D03*
X269160Y513000D02*
D03*
X436800Y30400D02*
D03*
X411400D02*
D03*
D55*
X25250Y245000D02*
D03*
Y311000D02*
D03*
D56*
X665400Y360600D02*
D03*
Y81200D02*
D03*
X144700Y30400D02*
D03*
D57*
Y513000D02*
D03*
D58*
X35000Y213000D02*
D03*
D59*
Y33000D02*
D03*
D60*
X642000Y137000D02*
D03*
X180500Y410500D02*
D03*
X311000Y365000D02*
D03*
X64000Y296000D02*
D03*
Y304000D02*
D03*
X497000Y242000D02*
D03*
X405000Y190000D02*
D03*
X379000D02*
D03*
X362000D02*
D03*
X313000D02*
D03*
X338000D02*
D03*
X214700Y95300D02*
D03*
X242000Y250000D02*
D03*
X166000Y228000D02*
D03*
X200000Y281000D02*
D03*
X349500Y108500D02*
D03*
X204000Y207000D02*
D03*
X82000Y132000D02*
D03*
Y142000D02*
D03*
Y152000D02*
D03*
X56000D02*
D03*
Y142000D02*
D03*
Y132000D02*
D03*
X569000Y443000D02*
D03*
X274000Y92000D02*
D03*
X279000Y448000D02*
D03*
X314000Y264000D02*
D03*
X319000Y256000D02*
D03*
X312000Y275000D02*
D03*
X304000Y382000D02*
D03*
X424000Y195000D02*
D03*
X319000Y243000D02*
D03*
X148500Y259500D02*
D03*
X200000Y266000D02*
D03*
X208000Y272000D02*
D03*
Y282000D02*
D03*
X673000Y518000D02*
D03*
X227400Y95300D02*
D03*
X247000Y123000D02*
D03*
X192000Y399000D02*
D03*
X195000Y469000D02*
D03*
X157000Y463000D02*
D03*
X75000Y420500D02*
D03*
X592000Y481000D02*
D03*
X594000Y391000D02*
D03*
X589000Y373000D02*
D03*
X576000Y335000D02*
D03*
X579500Y233000D02*
D03*
X250000Y468000D02*
D03*
X224000Y464000D02*
D03*
X279000Y64000D02*
D03*
X444000Y65000D02*
D03*
X463000Y86000D02*
D03*
X138000Y251000D02*
D03*
X112000Y253000D02*
D03*
X122000Y183000D02*
D03*
X110000Y165000D02*
D03*
X166000Y308000D02*
D03*
X180000Y281000D02*
D03*
X293000Y428000D02*
D03*
Y406000D02*
D03*
X609500Y233000D02*
D03*
X14000Y96000D02*
D03*
X23000D02*
D03*
X32000D02*
D03*
Y83000D02*
D03*
X23000D02*
D03*
X14000D02*
D03*
X56000Y119000D02*
D03*
Y108000D02*
D03*
Y98000D02*
D03*
X82000Y119000D02*
D03*
Y108000D02*
D03*
Y98000D02*
D03*
X280000Y104000D02*
D03*
X14000Y152000D02*
D03*
X23000D02*
D03*
X32000D02*
D03*
Y165000D02*
D03*
X24000D02*
D03*
X14000D02*
D03*
X298000Y81750D02*
D03*
X666000Y501000D02*
D03*
X339000Y104000D02*
D03*
X386000Y107000D02*
D03*
M02*
