G04 Layer_Physical_Order=4*
G04 Layer_Color=16711680*
%FSLAX44Y44*%
%MOMM*%
G71*
G01*
G75*
%ADD29R,1.9000X1.9000*%
%ADD32C,0.2500*%
%ADD33C,0.2000*%
%ADD34C,0.5000*%
%ADD38C,1.9000*%
%ADD39R,1.9000X1.9000*%
%ADD40R,1.6000X2.0000*%
%ADD41O,1.6000X2.0000*%
G04:AMPARAMS|DCode=42|XSize=1.6mm|YSize=0.9mm|CornerRadius=0.315mm|HoleSize=0mm|Usage=FLASHONLY|Rotation=0.000|XOffset=0mm|YOffset=0mm|HoleType=Round|Shape=RoundedRectangle|*
%AMROUNDEDRECTD42*
21,1,1.6000,0.2700,0,0,0.0*
21,1,0.9700,0.9000,0,0,0.0*
1,1,0.6300,0.4850,-0.1350*
1,1,0.6300,-0.4850,-0.1350*
1,1,0.6300,-0.4850,0.1350*
1,1,0.6300,0.4850,0.1350*
%
%ADD42ROUNDEDRECTD42*%
%ADD43R,2.0000X1.6000*%
%ADD44O,2.0000X1.6000*%
%ADD45C,7.4000*%
%ADD46C,3.2000*%
%ADD47C,1.7000*%
%ADD48R,1.7000X1.7000*%
%ADD49R,1.7000X1.7000*%
%ADD50C,4.0000*%
%ADD51C,0.6000*%
%ADD61C,0.3000*%
D29*
X622000Y418000D02*
D03*
D32*
X584000Y72000D02*
X642000Y130000D01*
Y137000D01*
X405000Y190000D02*
Y190060D01*
X399000Y196060D02*
X405000Y190060D01*
X356000Y190000D02*
X362000D01*
X348000Y198000D02*
X356000Y190000D01*
X306000D02*
X313000D01*
X306000Y190000D02*
X306000Y190000D01*
X330000D02*
X338000D01*
X200000Y266000D02*
Y281000D01*
X360600Y154600D02*
X373000Y167000D01*
X421560Y501440D02*
Y513000D01*
X192960D02*
Y520960D01*
X360600Y132000D02*
Y154600D01*
X601000Y185000D02*
Y271200D01*
X591000Y175000D02*
X601000Y185000D01*
X279000Y497440D02*
X294560Y513000D01*
X279000Y448000D02*
Y497440D01*
X617000Y327000D02*
Y380000D01*
X623000Y332000D02*
Y377000D01*
X218360Y513000D02*
Y518360D01*
X319000Y256000D02*
X329000D01*
X323000Y197000D02*
X330000Y190000D01*
X329000Y256000D02*
X339000Y246000D01*
Y233000D02*
Y246000D01*
X297000Y221000D02*
X319000Y243000D01*
X323000Y217000D02*
X339000Y233000D01*
X323000Y197000D02*
Y217000D01*
X297000Y199000D02*
X306000Y190000D01*
X297000Y199000D02*
Y221000D01*
X335200Y132000D02*
Y151200D01*
X359000Y175000D01*
X208000Y272000D02*
Y282000D01*
X623000Y377000D02*
X654230Y408230D01*
Y488289D01*
X122000Y114000D02*
X127000D01*
X166000Y277000D02*
Y308000D01*
X148500Y259500D02*
X166000Y277000D01*
X301600Y30400D02*
X309800D01*
X359000Y175000D02*
X591000D01*
X614400Y257600D02*
X626000Y246000D01*
X588600Y283600D02*
X601000Y271200D01*
X614400Y279600D02*
Y283000D01*
X617000Y380000D02*
X649000Y412000D01*
Y489480D01*
X653000Y493480D01*
X274000Y92000D02*
X294000Y72000D01*
X584000D01*
X373000Y148000D02*
X381000Y156000D01*
X373000Y120000D02*
X386000Y107000D01*
X373000Y120000D02*
Y148000D01*
X589200Y132000D02*
Y141200D01*
X596000Y148000D01*
X218360Y518360D02*
X230000Y530000D01*
X180500Y410500D02*
Y521500D01*
X666000Y501000D02*
Y532000D01*
X230000Y530000D02*
X648000D01*
X653000Y525000D01*
Y493480D02*
Y525000D01*
X192960Y520960D02*
X208000Y536000D01*
X652000D01*
X180500Y521500D02*
X201000Y542000D01*
X656000D01*
X666000Y532000D01*
X654230Y488289D02*
X659000Y493060D01*
Y529000D01*
X652000Y536000D02*
X659000Y529000D01*
X569000Y443000D02*
Y475000D01*
X421560Y501440D02*
X435000Y488000D01*
X556000D01*
X569000Y475000D01*
X424000Y195000D02*
Y227000D01*
X311000Y340000D02*
X424000Y227000D01*
X311000Y340000D02*
Y365000D01*
X614400Y279600D02*
X633000Y261000D01*
X614600Y132000D02*
Y145600D01*
X381000Y156000D02*
X599000D01*
X633000Y190000D01*
Y261000D01*
X626000Y196975D02*
Y246000D01*
X373000Y167000D02*
X596025D01*
X626000Y196975D01*
X304000Y332000D02*
Y382000D01*
Y332000D02*
X399000Y237000D01*
Y196060D02*
Y237000D01*
X314000Y264000D02*
X336000D01*
X348000Y252000D01*
Y198000D02*
Y252000D01*
X617000Y327000D02*
X640000Y304000D01*
X614600Y145600D02*
X648000Y179000D01*
Y307000D01*
X623000Y332000D02*
X648000Y307000D01*
X596000Y148000D02*
X605000D01*
X640000Y183000D01*
Y304000D01*
D33*
X18000Y419000D02*
X32000D01*
X14000Y423000D02*
X18000Y419000D01*
X14000Y423000D02*
Y519000D01*
X28000Y533000D01*
X180000D01*
X673000Y518000D02*
Y535000D01*
X180000Y533000D02*
X195000Y548000D01*
X660000D01*
X673000Y535000D01*
D34*
X202000Y250000D02*
X242000D01*
X180000Y272000D02*
X202000Y250000D01*
X180000Y272000D02*
Y281000D01*
X312000Y275000D02*
X343000D01*
X373100Y244900D01*
Y219100D02*
Y244900D01*
D38*
X622000Y483000D02*
D03*
X667000D02*
D03*
Y418000D02*
D03*
X257500Y76500D02*
D03*
Y31500D02*
D03*
X192500D02*
D03*
D39*
Y76500D02*
D03*
D40*
X614600Y208200D02*
D03*
X421560Y513000D02*
D03*
X513000Y30400D02*
D03*
X640000Y513000D02*
D03*
X284400Y30400D02*
D03*
D41*
X589200Y208200D02*
D03*
X563800D02*
D03*
X538400D02*
D03*
X513000D02*
D03*
X487600D02*
D03*
X462200D02*
D03*
X436800D02*
D03*
X411400D02*
D03*
X386000D02*
D03*
X360600D02*
D03*
X335200D02*
D03*
X309800D02*
D03*
X284400D02*
D03*
X614600Y132000D02*
D03*
X589200D02*
D03*
X563800D02*
D03*
X538400D02*
D03*
X513000D02*
D03*
X487600D02*
D03*
X462200D02*
D03*
X436800D02*
D03*
X411400D02*
D03*
X386000D02*
D03*
X360600D02*
D03*
X335200D02*
D03*
X309800D02*
D03*
X284400D02*
D03*
X192960Y513000D02*
D03*
X218360D02*
D03*
X243760D02*
D03*
X269160D02*
D03*
X294560D02*
D03*
X319960D02*
D03*
X345360D02*
D03*
X370760D02*
D03*
X396160D02*
D03*
X538400Y30400D02*
D03*
X563800D02*
D03*
X589200D02*
D03*
X614600D02*
D03*
X640000D02*
D03*
X462200Y513000D02*
D03*
X487600D02*
D03*
X513000D02*
D03*
X538400D02*
D03*
X563800D02*
D03*
X589200D02*
D03*
X614600D02*
D03*
X462200Y30400D02*
D03*
X436800D02*
D03*
X411400D02*
D03*
X386000D02*
D03*
X360600D02*
D03*
X335200D02*
D03*
X309800D02*
D03*
D42*
X25250Y245000D02*
D03*
Y311000D02*
D03*
D43*
X122000Y139400D02*
D03*
X665000Y161000D02*
D03*
X32000Y420000D02*
D03*
D44*
X122000Y114000D02*
D03*
Y88600D02*
D03*
X665000Y186400D02*
D03*
Y211800D02*
D03*
X32000Y394600D02*
D03*
Y369200D02*
D03*
Y343800D02*
D03*
D45*
X665400Y360600D02*
D03*
Y81200D02*
D03*
X144700Y30400D02*
D03*
D46*
Y513000D02*
D03*
D47*
X75600Y342600D02*
D03*
X101000D02*
D03*
X75600Y368000D02*
D03*
X57000Y456600D02*
D03*
Y482000D02*
D03*
Y507400D02*
D03*
X31600Y456600D02*
D03*
Y482000D02*
D03*
X588600Y309000D02*
D03*
Y283600D02*
D03*
Y258200D02*
D03*
X614000Y309000D02*
D03*
Y283600D02*
D03*
D48*
X101000Y368000D02*
D03*
D49*
X31600Y507400D02*
D03*
X614000Y258200D02*
D03*
D50*
X35000Y213000D02*
D03*
Y33000D02*
D03*
D51*
X642000Y137000D02*
D03*
X360000Y98000D02*
D03*
X313000Y86000D02*
D03*
X180500Y410500D02*
D03*
X206500Y433500D02*
D03*
X311000Y365000D02*
D03*
X64000Y296000D02*
D03*
Y304000D02*
D03*
X582500Y408500D02*
D03*
X497000Y242000D02*
D03*
X405000Y190000D02*
D03*
X379000D02*
D03*
X362000D02*
D03*
X313000D02*
D03*
X338000D02*
D03*
X202000Y95000D02*
D03*
X214700Y95300D02*
D03*
X242000Y250000D02*
D03*
X148500Y234500D02*
D03*
X166000Y228000D02*
D03*
X200000Y281000D02*
D03*
X476000Y242000D02*
D03*
X568000Y244000D02*
D03*
X349500Y108500D02*
D03*
X156000Y176000D02*
D03*
X204000Y207000D02*
D03*
X82000Y132000D02*
D03*
Y142000D02*
D03*
Y152000D02*
D03*
X56000D02*
D03*
Y142000D02*
D03*
Y132000D02*
D03*
X82000Y194000D02*
D03*
Y183000D02*
D03*
Y173000D02*
D03*
X56000D02*
D03*
Y183000D02*
D03*
Y194000D02*
D03*
X82000Y67000D02*
D03*
Y57000D02*
D03*
Y78000D02*
D03*
X56000Y57000D02*
D03*
Y67000D02*
D03*
Y78000D02*
D03*
X569000Y443000D02*
D03*
X274000Y92000D02*
D03*
X279000Y448000D02*
D03*
X314000Y264000D02*
D03*
X319000Y256000D02*
D03*
X312000Y275000D02*
D03*
X304000Y382000D02*
D03*
X424000Y195000D02*
D03*
X319000Y243000D02*
D03*
X148500Y259500D02*
D03*
X200000Y266000D02*
D03*
X208000Y272000D02*
D03*
Y282000D02*
D03*
X673000Y518000D02*
D03*
X338000Y62000D02*
D03*
X380000Y64000D02*
D03*
X405000Y86000D02*
D03*
X423000Y107000D02*
D03*
X669000Y236000D02*
D03*
X447000Y254000D02*
D03*
X445000Y232000D02*
D03*
X409000Y254000D02*
D03*
X603000Y345000D02*
D03*
X571000Y373000D02*
D03*
X611000Y439000D02*
D03*
X126000Y201000D02*
D03*
X112000Y234000D02*
D03*
X85000D02*
D03*
X289000Y250000D02*
D03*
Y344000D02*
D03*
X252000Y489000D02*
D03*
X224000Y482000D02*
D03*
X64500Y431001D02*
D03*
X247000Y143000D02*
D03*
X227000Y324000D02*
D03*
X192000Y305500D02*
D03*
X410000Y55000D02*
D03*
X227400Y95300D02*
D03*
X247000Y123000D02*
D03*
X192000Y399000D02*
D03*
X195000Y469000D02*
D03*
X157000Y463000D02*
D03*
X75000Y420500D02*
D03*
X592000Y481000D02*
D03*
X594000Y391000D02*
D03*
X589000Y373000D02*
D03*
X576000Y335000D02*
D03*
X579500Y233000D02*
D03*
X250000Y468000D02*
D03*
X224000Y464000D02*
D03*
X279000Y64000D02*
D03*
X444000Y65000D02*
D03*
X463000Y86000D02*
D03*
X462000Y65000D02*
D03*
Y107000D02*
D03*
X81000Y274000D02*
D03*
Y291000D02*
D03*
X132000Y286000D02*
D03*
X188500Y250000D02*
D03*
X204500Y228000D02*
D03*
X243500Y207000D02*
D03*
Y228000D02*
D03*
X138000Y251000D02*
D03*
X112000Y253000D02*
D03*
X122000Y183000D02*
D03*
X110000Y165000D02*
D03*
X38500Y290000D02*
D03*
Y266000D02*
D03*
X38500Y310000D02*
D03*
Y246000D02*
D03*
X52000Y259000D02*
D03*
X166000Y308000D02*
D03*
X180000Y281000D02*
D03*
X293000Y428000D02*
D03*
Y406000D02*
D03*
X609500Y233000D02*
D03*
X14000Y96000D02*
D03*
X23000D02*
D03*
X32000D02*
D03*
Y83000D02*
D03*
X23000D02*
D03*
X14000D02*
D03*
X56000Y119000D02*
D03*
Y108000D02*
D03*
Y98000D02*
D03*
X82000Y119000D02*
D03*
Y108000D02*
D03*
Y98000D02*
D03*
X280000Y104000D02*
D03*
X14000Y152000D02*
D03*
X23000D02*
D03*
X32000D02*
D03*
Y165000D02*
D03*
X24000D02*
D03*
X14000D02*
D03*
X298000Y81750D02*
D03*
X226000Y166000D02*
D03*
Y154000D02*
D03*
X214000D02*
D03*
X202000D02*
D03*
X190000D02*
D03*
X226000Y178000D02*
D03*
X174000Y444000D02*
D03*
X666000Y501000D02*
D03*
X339000Y104000D02*
D03*
X386000Y107000D02*
D03*
D61*
X373100Y195700D02*
X378800Y190000D01*
X379000D01*
X373100Y195700D02*
Y219100D01*
M02*
