G04 Layer_Color=8388736*
%FSLAX44Y44*%
%MOMM*%
G71*
G01*
G75*
%ADD29R,1.9000X1.9000*%
%ADD38C,1.9000*%
%ADD39R,1.9000X1.9000*%
%ADD64R,1.1000X1.5000*%
%ADD65R,1.5000X1.1000*%
%ADD66R,0.8000X1.1000*%
%ADD67R,1.5000X0.9000*%
%ADD68R,0.9000X1.5000*%
%ADD69R,0.6700X1.6200*%
%ADD70R,1.6200X0.6700*%
%ADD71R,2.7000X1.2000*%
%ADD72R,0.7800X1.2800*%
%ADD73R,1.2800X0.7800*%
%ADD74C,3.0480*%
%ADD75R,1.8000X3.2000*%
%ADD76R,1.0500X0.8500*%
%ADD77R,0.8500X1.0500*%
%ADD78R,1.0000X1.0000*%
%ADD79R,0.8000X2.4000*%
%ADD80R,3.6500X2.3500*%
%ADD81R,1.4500X0.5000*%
%ADD82R,1.5000X1.7000*%
%ADD83R,2.0000X2.0000*%
%ADD84R,2.8000X2.2000*%
%ADD85R,2.2000X2.8000*%
%ADD86C,2.1000*%
%ADD87R,2.1000X2.1000*%
%ADD88R,2.1000X2.1000*%
%ADD89R,1.8000X2.2000*%
%ADD90O,1.8000X2.2000*%
G04:AMPARAMS|DCode=91|XSize=1.7mm|YSize=1mm|CornerRadius=0.365mm|HoleSize=0mm|Usage=FLASHONLY|Rotation=0.000|XOffset=0mm|YOffset=0mm|HoleType=Round|Shape=RoundedRectangle|*
%AMROUNDEDRECTD91*
21,1,1.7000,0.2700,0,0,0.0*
21,1,0.9700,1.0000,0,0,0.0*
1,1,0.7300,0.4850,-0.1350*
1,1,0.7300,-0.4850,-0.1350*
1,1,0.7300,-0.4850,0.1350*
1,1,0.7300,0.4850,0.1350*
%
%ADD91ROUNDEDRECTD91*%
%ADD92R,2.2000X1.8000*%
%ADD93O,2.2000X1.8000*%
%ADD94C,7.6000*%
%ADD95C,3.4000*%
%ADD96C,4.2000*%
D29*
X31600Y507400D02*
D03*
X614000Y258200D02*
D03*
D38*
X75600Y342600D02*
D03*
X101000D02*
D03*
X75600Y368000D02*
D03*
X57000Y456600D02*
D03*
Y482000D02*
D03*
Y507400D02*
D03*
X31600Y456600D02*
D03*
Y482000D02*
D03*
X588600Y309000D02*
D03*
Y283600D02*
D03*
Y258200D02*
D03*
X614000Y309000D02*
D03*
Y283600D02*
D03*
D39*
X101000Y368000D02*
D03*
D64*
X196000Y207000D02*
D03*
X215000D02*
D03*
X470500Y86000D02*
D03*
X451500D02*
D03*
X297500Y250000D02*
D03*
X278500D02*
D03*
X297500Y344000D02*
D03*
X278500D02*
D03*
X142500Y286000D02*
D03*
X123500D02*
D03*
X197000Y250000D02*
D03*
X216000D02*
D03*
X196000Y228000D02*
D03*
X215000D02*
D03*
X252000D02*
D03*
X233000D02*
D03*
X602500Y439000D02*
D03*
X583500D02*
D03*
X562500Y373000D02*
D03*
X581500D02*
D03*
X455500Y254000D02*
D03*
X436500D02*
D03*
X400500D02*
D03*
X419500D02*
D03*
X470500Y107000D02*
D03*
X451500D02*
D03*
X414500D02*
D03*
X433500D02*
D03*
X436500Y233000D02*
D03*
X455500D02*
D03*
X568000D02*
D03*
X587000D02*
D03*
X56000Y431000D02*
D03*
X75000D02*
D03*
X117500Y201000D02*
D03*
X136500D02*
D03*
X670500Y137000D02*
D03*
X651500D02*
D03*
X418500Y55000D02*
D03*
X399500D02*
D03*
X470500Y65000D02*
D03*
X451500D02*
D03*
X233000Y207000D02*
D03*
X252000D02*
D03*
X414500Y86000D02*
D03*
X433500D02*
D03*
X262500Y489000D02*
D03*
X243500D02*
D03*
X583500Y335000D02*
D03*
X602500D02*
D03*
D65*
X497000Y250500D02*
D03*
Y231500D02*
D03*
X224000Y490500D02*
D03*
Y471500D02*
D03*
X338000Y53500D02*
D03*
Y72500D02*
D03*
X360000Y89500D02*
D03*
Y108500D02*
D03*
X112000Y225500D02*
D03*
Y244500D02*
D03*
X380000Y72500D02*
D03*
Y53500D02*
D03*
X247000Y132500D02*
D03*
Y151500D02*
D03*
X156000Y168000D02*
D03*
Y149000D02*
D03*
X476000Y250500D02*
D03*
Y231500D02*
D03*
D66*
X87500Y291000D02*
D03*
X72500D02*
D03*
X87500Y274000D02*
D03*
X72500D02*
D03*
D67*
X166000Y239500D02*
D03*
Y220500D02*
D03*
X279000Y52500D02*
D03*
Y71500D02*
D03*
X257000Y308500D02*
D03*
Y327500D02*
D03*
X564000Y410000D02*
D03*
Y391000D02*
D03*
X317000Y52500D02*
D03*
Y71500D02*
D03*
X149000Y101500D02*
D03*
Y82500D02*
D03*
X149000Y120500D02*
D03*
Y101500D02*
D03*
X156000Y184500D02*
D03*
Y203500D02*
D03*
D68*
X621000Y233000D02*
D03*
X602000D02*
D03*
X603500Y481000D02*
D03*
X584500D02*
D03*
X291500Y104000D02*
D03*
X272500D02*
D03*
X137500Y165000D02*
D03*
X118500D02*
D03*
X281500Y406000D02*
D03*
X300500D02*
D03*
X92500Y234000D02*
D03*
X73500D02*
D03*
X281500Y428000D02*
D03*
X300500D02*
D03*
X199500Y399000D02*
D03*
X180500D02*
D03*
X73500Y255000D02*
D03*
X92500D02*
D03*
X73500Y310000D02*
D03*
X92500D02*
D03*
X261500Y468000D02*
D03*
X242500D02*
D03*
X164500Y399000D02*
D03*
X145500D02*
D03*
X233500Y250000D02*
D03*
X252500D02*
D03*
X603500Y460000D02*
D03*
X584500D02*
D03*
X420500Y233000D02*
D03*
X401500D02*
D03*
X397500Y107000D02*
D03*
X378500D02*
D03*
X145500Y463000D02*
D03*
X164500D02*
D03*
X677500Y236000D02*
D03*
X658500D02*
D03*
X261500Y385000D02*
D03*
X280500D02*
D03*
X261500Y365000D02*
D03*
X280500D02*
D03*
D69*
X224000Y294000D02*
D03*
X216000D02*
D03*
X208000D02*
D03*
X200000D02*
D03*
X192000D02*
D03*
X184000D02*
D03*
X176000D02*
D03*
X168000D02*
D03*
Y378000D02*
D03*
X176000D02*
D03*
X184000D02*
D03*
X192000D02*
D03*
X200000D02*
D03*
X208000D02*
D03*
X216000D02*
D03*
X224000D02*
D03*
D70*
X154000Y308000D02*
D03*
Y316000D02*
D03*
Y324000D02*
D03*
Y332000D02*
D03*
Y340000D02*
D03*
Y348000D02*
D03*
Y356000D02*
D03*
Y364000D02*
D03*
X238000D02*
D03*
Y356000D02*
D03*
Y348000D02*
D03*
Y340000D02*
D03*
Y332000D02*
D03*
Y324000D02*
D03*
Y316000D02*
D03*
Y308000D02*
D03*
D71*
X23000Y109500D02*
D03*
Y140500D02*
D03*
D72*
X187500Y443000D02*
D03*
X197000D02*
D03*
X206500D02*
D03*
X187500Y469000D02*
D03*
X206500D02*
D03*
X601500Y417000D02*
D03*
X592000D02*
D03*
X582500D02*
D03*
X601500Y391000D02*
D03*
X582500D02*
D03*
X129500Y225000D02*
D03*
X139000D02*
D03*
X148500D02*
D03*
X129500Y251000D02*
D03*
X148500D02*
D03*
D73*
X313000Y111500D02*
D03*
Y102000D02*
D03*
Y92500D02*
D03*
X339000Y111500D02*
D03*
Y92500D02*
D03*
D74*
X674000Y24000D02*
D03*
X667000Y537000D02*
D03*
X95000Y514000D02*
D03*
X82000Y26000D02*
D03*
D75*
X70000Y67500D02*
D03*
Y108500D02*
D03*
Y183500D02*
D03*
Y142500D02*
D03*
D76*
X298000Y51750D02*
D03*
Y74250D02*
D03*
D77*
X138500Y183000D02*
D03*
X116000D02*
D03*
D78*
X160500Y444000D02*
D03*
X145500D02*
D03*
X260500Y409000D02*
D03*
X245500D02*
D03*
X260500Y426000D02*
D03*
X245500D02*
D03*
X260500Y449000D02*
D03*
X245500D02*
D03*
D79*
X176600Y111000D02*
D03*
X189300D02*
D03*
X202000D02*
D03*
X214700D02*
D03*
X227400D02*
D03*
D80*
X202000Y173000D02*
D03*
D81*
X52000Y291000D02*
D03*
Y284500D02*
D03*
Y278000D02*
D03*
Y271500D02*
D03*
Y265000D02*
D03*
D82*
X49750Y246000D02*
D03*
Y310000D02*
D03*
D83*
X25250Y290000D02*
D03*
Y266000D02*
D03*
D84*
X289000Y275000D02*
D03*
Y319000D02*
D03*
D85*
X450000Y286000D02*
D03*
X406000D02*
D03*
D86*
X622000Y483000D02*
D03*
X667000D02*
D03*
Y418000D02*
D03*
X257500Y76500D02*
D03*
Y31500D02*
D03*
X192500D02*
D03*
D87*
X622000Y418000D02*
D03*
D88*
X192500Y76500D02*
D03*
D89*
X614600Y208200D02*
D03*
X421560Y513000D02*
D03*
X513000Y30400D02*
D03*
X640000Y513000D02*
D03*
X284400Y30400D02*
D03*
D90*
X589200Y208200D02*
D03*
X563800D02*
D03*
X538400D02*
D03*
X513000D02*
D03*
X487600D02*
D03*
X462200D02*
D03*
X436800D02*
D03*
X411400D02*
D03*
X386000D02*
D03*
X360600D02*
D03*
X335200D02*
D03*
X309800D02*
D03*
X284400D02*
D03*
X614600Y132000D02*
D03*
X589200D02*
D03*
X563800D02*
D03*
X538400D02*
D03*
X513000D02*
D03*
X487600D02*
D03*
X462200D02*
D03*
X436800D02*
D03*
X411400D02*
D03*
X386000D02*
D03*
X360600D02*
D03*
X335200D02*
D03*
X309800D02*
D03*
X284400D02*
D03*
X192960Y513000D02*
D03*
X218360D02*
D03*
X243760D02*
D03*
X269160D02*
D03*
X294560D02*
D03*
X319960D02*
D03*
X345360D02*
D03*
X370760D02*
D03*
X396160D02*
D03*
X538400Y30400D02*
D03*
X563800D02*
D03*
X589200D02*
D03*
X614600D02*
D03*
X640000D02*
D03*
X462200Y513000D02*
D03*
X487600D02*
D03*
X513000D02*
D03*
X538400D02*
D03*
X563800D02*
D03*
X589200D02*
D03*
X614600D02*
D03*
X462200Y30400D02*
D03*
X436800D02*
D03*
X411400D02*
D03*
X386000D02*
D03*
X360600D02*
D03*
X335200D02*
D03*
X309800D02*
D03*
D91*
X25250Y245000D02*
D03*
Y311000D02*
D03*
D92*
X122000Y139400D02*
D03*
X665000Y161000D02*
D03*
X32000Y420000D02*
D03*
D93*
X122000Y114000D02*
D03*
Y88600D02*
D03*
X665000Y186400D02*
D03*
Y211800D02*
D03*
X32000Y394600D02*
D03*
Y369200D02*
D03*
Y343800D02*
D03*
D94*
X665400Y360600D02*
D03*
Y81200D02*
D03*
X144700Y30400D02*
D03*
D95*
Y513000D02*
D03*
D96*
X35000Y213000D02*
D03*
Y33000D02*
D03*
M02*
