G04 Layer_Color=16711935*
%FSLAX44Y44*%
%MOMM*%
G71*
G01*
G75*
%ADD29R,1.9000X1.9000*%
%ADD38C,1.9000*%
%ADD39R,1.9000X1.9000*%
%ADD86C,2.1000*%
%ADD87R,2.1000X2.1000*%
%ADD88R,2.1000X2.1000*%
%ADD89R,1.8000X2.2000*%
%ADD90O,1.8000X2.2000*%
G04:AMPARAMS|DCode=91|XSize=1.7mm|YSize=1mm|CornerRadius=0.365mm|HoleSize=0mm|Usage=FLASHONLY|Rotation=0.000|XOffset=0mm|YOffset=0mm|HoleType=Round|Shape=RoundedRectangle|*
%AMROUNDEDRECTD91*
21,1,1.7000,0.2700,0,0,0.0*
21,1,0.9700,1.0000,0,0,0.0*
1,1,0.7300,0.4850,-0.1350*
1,1,0.7300,-0.4850,-0.1350*
1,1,0.7300,-0.4850,0.1350*
1,1,0.7300,0.4850,0.1350*
%
%ADD91ROUNDEDRECTD91*%
%ADD92R,2.2000X1.8000*%
%ADD93O,2.2000X1.8000*%
%ADD94C,7.6000*%
%ADD95C,3.4000*%
%ADD96C,4.2000*%
D29*
X31600Y507400D02*
D03*
X614000Y258200D02*
D03*
D38*
X75600Y342600D02*
D03*
X101000D02*
D03*
X75600Y368000D02*
D03*
X57000Y456600D02*
D03*
Y482000D02*
D03*
Y507400D02*
D03*
X31600Y456600D02*
D03*
Y482000D02*
D03*
X588600Y309000D02*
D03*
Y283600D02*
D03*
Y258200D02*
D03*
X614000Y309000D02*
D03*
Y283600D02*
D03*
D39*
X101000Y368000D02*
D03*
D86*
X622000Y483000D02*
D03*
X667000D02*
D03*
Y418000D02*
D03*
X257500Y76500D02*
D03*
Y31500D02*
D03*
X192500D02*
D03*
D87*
X622000Y418000D02*
D03*
D88*
X192500Y76500D02*
D03*
D89*
X614600Y208200D02*
D03*
X421560Y513000D02*
D03*
X513000Y30400D02*
D03*
X640000Y513000D02*
D03*
X284400Y30400D02*
D03*
D90*
X589200Y208200D02*
D03*
X563800D02*
D03*
X538400D02*
D03*
X513000D02*
D03*
X487600D02*
D03*
X462200D02*
D03*
X436800D02*
D03*
X411400D02*
D03*
X386000D02*
D03*
X360600D02*
D03*
X335200D02*
D03*
X309800D02*
D03*
X284400D02*
D03*
X614600Y132000D02*
D03*
X589200D02*
D03*
X563800D02*
D03*
X538400D02*
D03*
X513000D02*
D03*
X487600D02*
D03*
X462200D02*
D03*
X436800D02*
D03*
X411400D02*
D03*
X386000D02*
D03*
X360600D02*
D03*
X335200D02*
D03*
X309800D02*
D03*
X284400D02*
D03*
X192960Y513000D02*
D03*
X218360D02*
D03*
X243760D02*
D03*
X269160D02*
D03*
X294560D02*
D03*
X319960D02*
D03*
X345360D02*
D03*
X370760D02*
D03*
X396160D02*
D03*
X538400Y30400D02*
D03*
X563800D02*
D03*
X589200D02*
D03*
X614600D02*
D03*
X640000D02*
D03*
X462200Y513000D02*
D03*
X487600D02*
D03*
X513000D02*
D03*
X538400D02*
D03*
X563800D02*
D03*
X589200D02*
D03*
X614600D02*
D03*
X462200Y30400D02*
D03*
X436800D02*
D03*
X411400D02*
D03*
X386000D02*
D03*
X360600D02*
D03*
X335200D02*
D03*
X309800D02*
D03*
D91*
X25250Y245000D02*
D03*
Y311000D02*
D03*
D92*
X122000Y139400D02*
D03*
X665000Y161000D02*
D03*
X32000Y420000D02*
D03*
D93*
X122000Y114000D02*
D03*
Y88600D02*
D03*
X665000Y186400D02*
D03*
Y211800D02*
D03*
X32000Y394600D02*
D03*
Y369200D02*
D03*
Y343800D02*
D03*
D94*
X665400Y360600D02*
D03*
Y81200D02*
D03*
X144700Y30400D02*
D03*
D95*
Y513000D02*
D03*
D96*
X35000Y213000D02*
D03*
Y33000D02*
D03*
M02*
