G04 Layer_Color=32896*
%FSLAX44Y44*%
%MOMM*%
G71*
G01*
G75*
%ADD33C,0.2000*%
%ADD61C,0.3000*%
D33*
X568000Y74000D02*
X561335D01*
X558003Y70668D01*
X561335Y67336D01*
X568000D01*
X563002D01*
Y74000D01*
X558003Y64003D02*
X568000D01*
Y59005D01*
X566334Y57339D01*
X559669D01*
X558003Y59005D01*
Y64003D01*
X568000Y47342D02*
Y54006D01*
X561335Y47342D01*
X559669D01*
X558003Y49008D01*
Y52340D01*
X559669Y54006D01*
X663000Y41000D02*
X656336D01*
X653003Y37668D01*
X656336Y34335D01*
X663000D01*
X658002D01*
Y41000D01*
X653003Y31003D02*
X663000D01*
Y26005D01*
X661334Y24339D01*
X654669D01*
X653003Y26005D01*
Y31003D01*
Y14342D02*
Y21006D01*
X658002D01*
X656336Y17674D01*
Y16008D01*
X658002Y14342D01*
X661334D01*
X663000Y16008D01*
Y19340D01*
X661334Y21006D01*
X619000Y74000D02*
X612336D01*
X609003Y70668D01*
X612336Y67336D01*
X619000D01*
X614002D01*
Y74000D01*
X609003Y64003D02*
X619000D01*
Y59005D01*
X617334Y57339D01*
X610669D01*
X609003Y59005D01*
Y64003D01*
X619000Y49008D02*
X609003D01*
X614002Y54006D01*
Y47342D01*
X594000Y74000D02*
X587336D01*
X584003Y70668D01*
X587336Y67336D01*
X594000D01*
X589002D01*
Y74000D01*
X584003Y64003D02*
X594000D01*
Y59005D01*
X592334Y57339D01*
X585669D01*
X584003Y59005D01*
Y64003D01*
X585669Y54006D02*
X584003Y52340D01*
Y49008D01*
X585669Y47342D01*
X587336D01*
X589002Y49008D01*
Y50674D01*
Y49008D01*
X590668Y47342D01*
X592334D01*
X594000Y49008D01*
Y52340D01*
X592334Y54006D01*
X543000Y71000D02*
X536335D01*
X533003Y67668D01*
X536335Y64335D01*
X543000D01*
X538002D01*
Y71000D01*
X533003Y61003D02*
X543000D01*
Y56005D01*
X541334Y54339D01*
X534669D01*
X533003Y56005D01*
Y61003D01*
X543000Y51006D02*
Y47674D01*
Y49340D01*
X533003D01*
X534669Y51006D01*
X518000Y74000D02*
X511335D01*
X508003Y70668D01*
X511335Y67336D01*
X518000D01*
X513002D01*
Y74000D01*
X508003Y64003D02*
X518000D01*
Y59005D01*
X516334Y57339D01*
X509669D01*
X508003Y59005D01*
Y64003D01*
X509669Y54006D02*
X508003Y52340D01*
Y49008D01*
X509669Y47342D01*
X516334D01*
X518000Y49008D01*
Y52340D01*
X516334Y54006D01*
X509669D01*
X289000Y64000D02*
X279003D01*
X289000Y57336D01*
X279003D01*
X280669Y47339D02*
X279003Y49005D01*
Y52337D01*
X280669Y54003D01*
X287334D01*
X289000Y52337D01*
Y49005D01*
X287334Y47339D01*
X467000Y64000D02*
X457003D01*
X467000Y57336D01*
X457003D01*
X458669Y47339D02*
X457003Y49005D01*
Y52337D01*
X458669Y54003D01*
X465334D01*
X467000Y52337D01*
Y49005D01*
X465334Y47339D01*
X432669Y67336D02*
X431003Y69002D01*
Y72334D01*
X432669Y74000D01*
X439334D01*
X441000Y72334D01*
Y69002D01*
X439334Y67336D01*
X436002D01*
Y70668D01*
X441000Y64003D02*
X431003D01*
X441000Y57339D01*
X431003D01*
Y54006D02*
X441000D01*
Y49008D01*
X439334Y47342D01*
X432669D01*
X431003Y49008D01*
Y54006D01*
X407669Y67336D02*
X406003Y69002D01*
Y72334D01*
X407669Y74000D01*
X414334D01*
X416000Y72334D01*
Y69002D01*
X414334Y67336D01*
X411002D01*
Y70668D01*
X416000Y64003D02*
X406003D01*
X416000Y57339D01*
X406003D01*
Y54006D02*
X416000D01*
Y49008D01*
X414334Y47342D01*
X407669D01*
X406003Y49008D01*
Y54006D01*
X386002Y74000D02*
Y67336D01*
X382669Y70668D02*
X389334D01*
X381003Y57339D02*
Y64003D01*
X386002D01*
X384336Y60671D01*
Y59005D01*
X386002Y57339D01*
X389334D01*
X391000Y59005D01*
Y62337D01*
X389334Y64003D01*
X381003Y54006D02*
X387668D01*
X391000Y50674D01*
X387668Y47342D01*
X381003D01*
X360002Y84000D02*
Y77336D01*
X356669Y80668D02*
X363334D01*
X356669Y74003D02*
X355003Y72337D01*
Y69005D01*
X356669Y67339D01*
X358335D01*
X360002Y69005D01*
Y70671D01*
Y69005D01*
X361668Y67339D01*
X363334D01*
X365000Y69005D01*
Y72337D01*
X363334Y74003D01*
X355003Y64007D02*
X361668D01*
X365000Y60674D01*
X361668Y57342D01*
X355003D01*
X356669Y54010D02*
X355003Y52344D01*
Y49011D01*
X356669Y47345D01*
X358335D01*
X360002Y49011D01*
Y50677D01*
Y49011D01*
X361668Y47345D01*
X363334D01*
X365000Y49011D01*
Y52344D01*
X363334Y54010D01*
X340000Y74000D02*
X330003D01*
Y69002D01*
X331669Y67336D01*
X335002D01*
X336668Y69002D01*
Y74000D01*
Y70668D02*
X340000Y67336D01*
X331669Y57339D02*
X330003Y59005D01*
Y62337D01*
X331669Y64003D01*
X333335D01*
X335002Y62337D01*
Y59005D01*
X336668Y57339D01*
X338334D01*
X340000Y59005D01*
Y62337D01*
X338334Y64003D01*
X330003Y54006D02*
Y47342D01*
Y50674D01*
X340000D01*
X309002Y114000D02*
Y107336D01*
X305669Y110668D02*
X312334D01*
X304003Y97339D02*
Y104003D01*
X309002D01*
X307335Y100671D01*
Y99005D01*
X309002Y97339D01*
X312334D01*
X314000Y99005D01*
Y102337D01*
X312334Y104003D01*
X304003Y94006D02*
X310668D01*
X314000Y90674D01*
X310668Y87342D01*
X304003D01*
X314000Y84010D02*
X307335Y77345D01*
X305669Y74013D02*
X304003Y72347D01*
Y69015D01*
X305669Y67348D01*
X307335D01*
X309002Y69015D01*
Y70681D01*
Y69015D01*
X310668Y67348D01*
X312334D01*
X314000Y69015D01*
Y72347D01*
X312334Y74013D01*
X304003Y64016D02*
X310668D01*
X314000Y60684D01*
X310668Y57352D01*
X304003D01*
X305669Y54019D02*
X304003Y52353D01*
Y49021D01*
X305669Y47355D01*
X307335D01*
X309002Y49021D01*
Y50687D01*
Y49021D01*
X310668Y47355D01*
X312334D01*
X314000Y49021D01*
Y52353D01*
X312334Y54019D01*
X636669Y496000D02*
X635003Y494334D01*
Y491002D01*
X636669Y489336D01*
X643334D01*
X645000Y491002D01*
Y494334D01*
X643334Y496000D01*
X636669D01*
X645000Y486003D02*
X638335Y479339D01*
X645000Y476006D02*
X635003D01*
Y471008D01*
X636669Y469342D01*
X640002D01*
X641668Y471008D01*
Y476006D01*
Y472674D02*
X645000Y469342D01*
X635003Y466010D02*
X645000Y459345D01*
X635003D02*
X645000Y466010D01*
X620000Y468000D02*
Y464668D01*
Y466334D01*
X610003D01*
X611669Y468000D01*
X620000Y459669D02*
X613335Y453005D01*
X610003Y449673D02*
Y443008D01*
Y446340D01*
X620000D01*
X610003Y439676D02*
X620000Y433011D01*
X610003D02*
X620000Y439676D01*
X595000Y489336D02*
Y496000D01*
X588335Y489336D01*
X586669D01*
X585003Y491002D01*
Y494334D01*
X586669Y496000D01*
X560669D02*
X559003Y494334D01*
Y491002D01*
X560669Y489336D01*
X562336D01*
X564002Y491002D01*
Y492668D01*
Y491002D01*
X565668Y489336D01*
X567334D01*
X569000Y491002D01*
Y494334D01*
X567334Y496000D01*
X560669Y486003D02*
X559003Y484337D01*
Y481005D01*
X557337Y479339D01*
X544000Y491002D02*
X534003D01*
X539002Y496000D01*
Y489336D01*
X509003D02*
Y496000D01*
X514002D01*
X512336Y492668D01*
Y491002D01*
X514002Y489336D01*
X517334D01*
X519000Y491002D01*
Y494334D01*
X517334Y496000D01*
X510669Y486003D02*
X509003Y484337D01*
Y481005D01*
X507337Y479339D01*
X483003Y489336D02*
X484669Y492668D01*
X488002Y496000D01*
X491334D01*
X493000Y494334D01*
Y491002D01*
X491334Y489336D01*
X489668D01*
X488002Y491002D01*
Y496000D01*
X484669Y486003D02*
X483003Y484337D01*
Y481005D01*
X481337Y479339D01*
X458003Y496000D02*
Y489336D01*
X459669D01*
X466334Y496000D01*
X468000D01*
X418669D02*
X417003Y494334D01*
Y491002D01*
X418669Y489336D01*
X420336D01*
X422002Y491002D01*
X423668Y489336D01*
X425334D01*
X427000Y491002D01*
Y494334D01*
X425334Y496000D01*
X423668D01*
X422002Y494334D01*
X420336Y496000D01*
X418669D01*
X422002Y494334D02*
Y491002D01*
X400334Y496000D02*
X402000Y494334D01*
Y491002D01*
X400334Y489336D01*
X393669D01*
X392003Y491002D01*
Y494334D01*
X393669Y496000D01*
X395336D01*
X397002Y494334D01*
Y489336D01*
X393669Y486003D02*
X392003Y484337D01*
Y481005D01*
X390337Y479339D01*
X376000Y496000D02*
Y492668D01*
Y494334D01*
X366003D01*
X367669Y496000D01*
Y487669D02*
X366003Y486003D01*
Y482671D01*
X367669Y481005D01*
X374334D01*
X376000Y482671D01*
Y486003D01*
X374334Y487669D01*
X367669D01*
Y477673D02*
X366003Y476006D01*
Y472674D01*
X364337Y471008D01*
X376000Y467676D02*
X369336Y461011D01*
X367669Y451015D02*
X366003Y452681D01*
Y456013D01*
X367669Y457679D01*
X369336D01*
X371002Y456013D01*
Y452681D01*
X372668Y451015D01*
X374334D01*
X376000Y452681D01*
Y456013D01*
X374334Y457679D01*
X367669Y441018D02*
X366003Y442684D01*
Y446016D01*
X367669Y447682D01*
X369336D01*
X371002Y446016D01*
Y442684D01*
X372668Y441018D01*
X374334D01*
X376000Y442684D01*
Y446016D01*
X374334Y447682D01*
X351000Y496000D02*
Y492668D01*
Y494334D01*
X341003D01*
X342669Y496000D01*
X351000Y487669D02*
Y484337D01*
Y486003D01*
X341003D01*
X342669Y487669D01*
Y479339D02*
X341003Y477673D01*
Y474340D01*
X339337Y472674D01*
X351000Y469342D02*
X344336Y462677D01*
X351000Y459345D02*
X341003D01*
X344336Y456013D01*
X341003Y452681D01*
X351000D01*
X341003Y444350D02*
Y447682D01*
X342669Y449348D01*
X349334D01*
X351000Y447682D01*
Y444350D01*
X349334Y442684D01*
X342669D01*
X341003Y444350D01*
X342669Y432687D02*
X341003Y434353D01*
Y437686D01*
X342669Y439352D01*
X344336D01*
X346002Y437686D01*
Y434353D01*
X347668Y432687D01*
X349334D01*
X351000Y434353D01*
Y437686D01*
X349334Y439352D01*
X341003Y429355D02*
Y426023D01*
Y427689D01*
X351000D01*
Y429355D01*
Y426023D01*
X326000Y496000D02*
Y492668D01*
Y494334D01*
X316003D01*
X317669Y496000D01*
X326000Y481005D02*
Y487669D01*
X319335Y481005D01*
X317669D01*
X316003Y482671D01*
Y486003D01*
X317669Y487669D01*
X326000Y477673D02*
X319335Y471008D01*
X326000Y467676D02*
X316003D01*
X319335Y464343D01*
X316003Y461011D01*
X326000D01*
X316003Y457679D02*
Y454347D01*
Y456013D01*
X326000D01*
Y457679D01*
Y454347D01*
X317669Y442684D02*
X316003Y444350D01*
Y447682D01*
X317669Y449348D01*
X319335D01*
X321002Y447682D01*
Y444350D01*
X322668Y442684D01*
X324334D01*
X326000Y444350D01*
Y447682D01*
X324334Y449348D01*
X316003Y434353D02*
Y437686D01*
X317669Y439352D01*
X324334D01*
X326000Y437686D01*
Y434353D01*
X324334Y432687D01*
X317669D01*
X316003Y434353D01*
X300000Y496000D02*
Y492668D01*
Y494334D01*
X290003D01*
X291669Y496000D01*
Y487669D02*
X290003Y486003D01*
Y482671D01*
X291669Y481005D01*
X293335D01*
X295002Y482671D01*
Y484337D01*
Y482671D01*
X296668Y481005D01*
X298334D01*
X300000Y482671D01*
Y486003D01*
X298334Y487669D01*
X300000Y477673D02*
X293335Y471008D01*
X291669Y461011D02*
X290003Y462677D01*
Y466010D01*
X291669Y467676D01*
X293335D01*
X295002Y466010D01*
Y462677D01*
X296668Y461011D01*
X298334D01*
X300000Y462677D01*
Y466010D01*
X298334Y467676D01*
X291669Y451015D02*
X290003Y452681D01*
Y456013D01*
X291669Y457679D01*
X298334D01*
X300000Y456013D01*
Y452681D01*
X298334Y451015D01*
X290003Y447682D02*
X300000D01*
X296668D01*
X290003Y441018D01*
X295002Y446016D01*
X300000Y441018D01*
X266669Y489336D02*
X265003Y491002D01*
Y494334D01*
X266669Y496000D01*
X273334D01*
X275000Y494334D01*
Y491002D01*
X273334Y489336D01*
X270002D01*
Y492668D01*
X275000Y486003D02*
X265003D01*
X275000Y479339D01*
X265003D01*
Y476006D02*
X275000D01*
Y471008D01*
X273334Y469342D01*
X266669D01*
X265003Y471008D01*
Y476006D01*
X244002Y496000D02*
Y489336D01*
X240669Y492668D02*
X247334D01*
X249000Y486003D02*
X242335D01*
X239003Y482671D01*
X242335Y479339D01*
X249000D01*
X244002D01*
Y486003D01*
X249000Y476006D02*
X239003D01*
Y471008D01*
X240669Y469342D01*
X244002D01*
X245668Y471008D01*
Y476006D01*
Y472674D02*
X249000Y469342D01*
X239003Y459345D02*
Y466010D01*
X249000D01*
Y459345D01*
X244002Y466010D02*
Y462677D01*
X239003Y449348D02*
Y456013D01*
X244002D01*
Y452681D01*
Y456013D01*
X249000D01*
X215669Y489336D02*
X214003Y491002D01*
Y494334D01*
X215669Y496000D01*
X217335D01*
X219002Y494334D01*
Y491002D01*
X220668Y489336D01*
X222334D01*
X224000Y491002D01*
Y494334D01*
X222334Y496000D01*
X214003Y486003D02*
X224000D01*
Y481005D01*
X222334Y479339D01*
X215669D01*
X214003Y481005D01*
Y486003D01*
X224000Y476006D02*
X217335D01*
X214003Y472674D01*
X217335Y469342D01*
X224000D01*
X219002D01*
Y476006D01*
X189669Y489336D02*
X188003Y491002D01*
Y494334D01*
X189669Y496000D01*
X191336D01*
X193002Y494334D01*
Y491002D01*
X194668Y489336D01*
X196334D01*
X198000Y491002D01*
Y494334D01*
X196334Y496000D01*
X189669Y479339D02*
X188003Y481005D01*
Y484337D01*
X189669Y486003D01*
X196334D01*
X198000Y484337D01*
Y481005D01*
X196334Y479339D01*
X188003Y476006D02*
X198000D01*
Y469342D01*
X68002Y196000D02*
Y189335D01*
X64669Y192668D02*
X71334D01*
X63003Y179339D02*
Y186003D01*
X68002D01*
X66336Y182671D01*
Y181005D01*
X68002Y179339D01*
X71334D01*
X73000Y181005D01*
Y184337D01*
X71334Y186003D01*
X63003Y176006D02*
X69668D01*
X73000Y172674D01*
X69668Y169342D01*
X63003D01*
Y166010D02*
Y162677D01*
Y164343D01*
X73000D01*
Y166010D01*
Y162677D01*
Y157679D02*
X63003D01*
X73000Y151014D01*
X63003D01*
X73000Y134353D02*
X69668Y137685D01*
X66336D01*
X63003Y134353D01*
Y124356D02*
Y127689D01*
X64669Y129355D01*
X71334D01*
X73000Y127689D01*
Y124356D01*
X71334Y122690D01*
X64669D01*
X63003Y124356D01*
X76332Y119358D02*
X66336D01*
Y114360D01*
X68002Y112694D01*
X71334D01*
X73000Y114360D01*
Y119358D01*
X64669Y107695D02*
X66336D01*
Y109361D01*
Y106029D01*
Y107695D01*
X71334D01*
X73000Y106029D01*
Y101031D02*
Y97698D01*
Y99365D01*
X66336D01*
Y101031D01*
X73000Y91034D02*
Y87702D01*
X71334Y86035D01*
X68002D01*
X66336Y87702D01*
Y91034D01*
X68002Y92700D01*
X71334D01*
X73000Y91034D01*
Y82703D02*
X66336D01*
Y77705D01*
X68002Y76039D01*
X73000D01*
X66336Y71040D02*
Y67708D01*
X68002Y66042D01*
X73000D01*
Y71040D01*
X71334Y72706D01*
X69668Y71040D01*
Y66042D01*
X73000Y62710D02*
Y59377D01*
Y61044D01*
X63003D01*
Y62710D01*
X73000Y54379D02*
X69668Y51047D01*
X66336D01*
X63003Y54379D01*
D61*
X314997Y298000D02*
X305000D01*
X314997Y288003D01*
Y285504D01*
X312498Y283005D01*
X307499D01*
X305000Y285504D01*
X319995D02*
X322494Y283005D01*
X327493D01*
X329992Y285504D01*
Y288003D01*
X327493Y290502D01*
X329992Y293002D01*
Y295501D01*
X327493Y298000D01*
X322494D01*
X319995Y295501D01*
Y293002D01*
X322494Y290502D01*
X319995Y288003D01*
Y285504D01*
X322494Y290502D02*
X327493D01*
X334990Y298000D02*
Y283005D01*
X342488D01*
X344987Y285504D01*
Y290502D01*
X342488Y293002D01*
X334990D01*
X349985Y298000D02*
X354984D01*
X352485D01*
Y288003D01*
X349985D01*
X362481Y298000D02*
Y288003D01*
X369979D01*
X372478Y290502D01*
Y298000D01*
X377477D02*
X384974D01*
X387473Y295501D01*
X384974Y293002D01*
X379976D01*
X377477Y290502D01*
X379976Y288003D01*
X387473D01*
X417464Y283005D02*
X407467D01*
Y290502D01*
X412465Y288003D01*
X414964D01*
X417464Y290502D01*
Y295501D01*
X414964Y298000D01*
X409966D01*
X407467Y295501D01*
X422462Y283005D02*
Y293002D01*
X427460Y298000D01*
X432459Y293002D01*
Y283005D01*
X452452D02*
Y293002D01*
X457451Y298000D01*
X462449Y293002D01*
Y283005D01*
X469947Y288003D02*
X474945D01*
X477444Y290502D01*
Y298000D01*
X469947D01*
X467447Y295501D01*
X469947Y293002D01*
X477444D01*
X482443Y288003D02*
Y298000D01*
Y293002D01*
X484942Y290502D01*
X487441Y288003D01*
X489940D01*
X497438Y298000D02*
X502436D01*
X499937D01*
Y288003D01*
X497438D01*
X512433D02*
X517431D01*
X519930Y290502D01*
Y298000D01*
X512433D01*
X509934Y295501D01*
X512433Y293002D01*
X519930D01*
X524929Y298000D02*
Y288003D01*
X532426D01*
X534925Y290502D01*
Y298000D01*
X542423Y285504D02*
Y288003D01*
X539924D01*
X544922D01*
X542423D01*
Y295501D01*
X544922Y298000D01*
X35003Y173000D02*
Y186329D01*
X28000Y64997D02*
X41329D01*
X34664Y71661D02*
Y58332D01*
M02*
