M48
;Layer_Color=9474304
;FILE_FORMAT=4:4
METRIC,LZ
;TYPE=PLATED
T1F00S00C0.3000
T3F00S00C1.1000
T4F00S00C1.5000
T5F00S00C3.2000
;TYPE=NON_PLATED
T6F00S00C3.2000
%
T01
X00014Y00083
X00023
X00032
Y00096
X00023
X00014
X00056Y00098
Y00108
Y00119
Y00132
Y00142
Y00152
Y00173
Y00183
Y00194
X00082
Y00183
Y00173
Y00152
Y00142
Y00132
Y00119
Y00108
Y00098
Y00078
Y00067
Y00057
X00056
Y00067
Y00078
X00032Y00152
X00023
X00014
Y00165
X00024
X00032
X0011
X00122Y00183
X00126Y00201
X00112Y00234
X00085
X001485Y002345
X00166Y00228
X002045
X00204Y00207
X00226Y00178
Y00166
Y00154
X00214
X00202
X0019
X00156Y00176
X00202Y00095
X002147Y000953
X002274
X00247Y00123
Y00143
X002435Y00207
Y00228
X00319Y00243
X00313Y0019
X00338
X00362
X00379
X00405
X00424Y00195
X00445Y00232
X00476Y00242
X00497
X005795Y00233
X006095
X00462Y00107
X00463Y00086
X00462Y00065
X00444
X0041Y00055
X00405Y00086
X00423Y00107
X00386
X0036Y00098
X003495Y001085
X00339Y00104
X00338Y00062
X0038Y00064
X00313Y00086
X00298Y0008175
X00274Y00092
X0028Y00104
X00279Y00064
X00642Y00137
X00669Y00236
X00666Y00501
X00673Y00518
X00592Y00481
X00569Y00443
X00611Y00439
X005825Y004085
X00594Y00391
X00589Y00373
X00571
X00576Y00335
X00603Y00345
X00568Y00244
X00447Y00254
X00409
X00319Y00256
X00314Y00264
X00312Y00275
X00289Y0025
Y00344
X00311Y00365
X00304Y00382
X00293Y00406
Y00428
X00279Y00448
X0025Y00468
X00252Y00489
X00224Y00482
Y00464
X00195Y00469
X00157Y00463
X00174Y00444
X001805Y004105
X00192Y00399
X002065Y004335
X00227Y00324
X00192Y003055
X00166Y00308
X0018Y00281
X002
X00208Y00282
Y00272
X002Y00266
X001885Y0025
X001485Y002595
X00138Y00251
X00112Y00253
X00081Y00274
Y00291
X00064Y00296
Y00304
X000385Y0031
X000385Y0029
Y00266
X000385Y00246
X00052Y00259
X00132Y00286
X00242Y0025
X00075Y004205
X000645Y00431001
T03
X00122Y000886
Y00114
Y001394
X001925Y000765
Y000315
X002575
X002844Y000304
X003098
X003352
X003606
X00386
X004114
X004368
X004622
X00513
X005384
X005638
X005892
X006146
Y00132
X005892
X005638
X005384
X00513
X004876
X004622
X004368
X004114
X00386
X003606
X003352
X003098
X002844
Y002082
X003098
X003352
X003606
X00386
X004114
X004368
X004622
X004876
X00513
X005384
X005638
X005892
X006146
X002575Y000765
X0064Y000304
X00665Y00161
Y001864
Y002118
X00667Y00418
Y00483
X0064Y00513
X006146
X005892
X005638
X005384
X00513
X004876
X004622
X0042156
X0039616
X0037076
X0034536
X0031996
X0029456
X0026916
X0024376
X00622Y00483
Y00418
X00614Y00309
X005886
Y002836
Y002582
X00614
Y002836
X00101Y003426
X000756
Y00368
X00101
X00032Y003692
Y003946
Y0042
X000316Y004566
X00057
Y00482
Y005074
X000316
Y00482
X00032Y003438
X0019296Y00513
X0021836
T04
X00035Y00033
Y00213
T05
X001447Y000304
X006654Y000812
Y003606
T06
X001447Y00513
M30
